<?xml version="1.0" encoding="UTF-8" standalone="no"?>
<!-- Created with Inkscape (http://www.inkscape.org/) -->

<svg
   xmlns:dc="http://purl.org/dc/elements/1.1/"
   xmlns:cc="http://creativecommons.org/ns#"
   xmlns:rdf="http://www.w3.org/1999/02/22-rdf-syntax-ns#"
   xmlns:svg="http://www.w3.org/2000/svg"
   xmlns="http://www.w3.org/2000/svg"
   xmlns:sodipodi="http://sodipodi.sourceforge.net/DTD/sodipodi-0.dtd"
   xmlns:inkscape="http://www.inkscape.org/namespaces/inkscape"
   id="svg7961"
   height="213.52846"
   width="193.52431"
   version="1.1"
   inkscape:version="0.48.3.1 r9886"
   sodipodi:docname="flower.svg">
  <defs
     id="defs3057" />
  <sodipodi:namedview
     pagecolor="#ffffff"
     bordercolor="#666666"
     borderopacity="1"
     objecttolerance="10"
     gridtolerance="10"
     guidetolerance="10"
     inkscape:pageopacity="0"
     inkscape:pageshadow="2"
     inkscape:window-width="1301"
     inkscape:window-height="744"
     id="namedview3055"
     showgrid="false"
     fit-margin-top="0"
     fit-margin-left="0"
     fit-margin-right="0"
     fit-margin-bottom="0"
     inkscape:zoom="1"
     inkscape:cx="105.8483"
     inkscape:cy="103.49571"
     inkscape:window-x="65"
     inkscape:window-y="24"
     inkscape:window-maximized="1"
     inkscape:current-layer="svg7961" />
  <metadata
     id="metadata7966">
    <rdf:RDF>
      <cc:Work
         rdf:about="">
        <dc:format>image/svg+xml</dc:format>
        <dc:type
           rdf:resource="http://purl.org/dc/dcmitype/StillImage" />
        <dc:title></dc:title>
      </cc:Work>
    </rdf:RDF>
  </metadata>
  <g
     style="display:inline"
     id="g6914"
     transform="matrix(0.92264532,0,0,0.92264532,-695.76973,-615.89455)">
    <path
       id="path5818-0-9-6"
       d="m 856.94338,668.52107 c -1.96969,0.002 -3.9409,0.13513 -5.89696,0.30178 -1.3043,0.0763 -2.60585,0.12752 -3.90032,0.32503 -7.63842,1.74074 -14.35796,5.82638 -18.80522,10.86523 -4.97451,6.2195 -5.95364,13.48884 -6.61665,20.40715 -0.98893,12.24206 1.12852,24.51411 6.26839,35.86921 -9.94547,-7.49452 -21.3641,-12.30197 -33.57077,-13.55833 -7.23135,-0.7574 -14.79402,-0.63 -22.24122,2.1359 -2.89765,1.12969 -5.84623,2.72948 -8.12571,5.61834 -3.25103,3.84531 -5.35218,8.83312 -7.03454,13.79049 -0.45279,1.22563 -0.91595,2.44941 -1.2537,3.71461 -1.46546,7.69603 -0.42044,15.47443 2.41451,21.56796 3.70536,7.04966 9.96937,10.85227 16.04245,14.23161 7.68063,4.12483 16.01651,6.82782 24.65573,7.98641 -10.59981,4.48651 -19.85156,11.25726 -26.86127,20.24461 -4.48191,5.72527 -8.37186,12.21016 -9.983,19.98929 -0.58156,3.05518 -0.7963,6.4013 0.44112,9.86689 1.53179,4.79674 4.6328,9.22168 7.93996,13.27971 0.79802,1.03455 1.59148,2.08332 2.48415,3.04141 5.74285,5.32873 12.90254,8.56876 19.57137,9.40255 7.94125,0.60394 14.50425,-2.68476 20.59284,-6.03623 7.98254,-4.55065 14.99152,-10.54757 20.73217,-17.73727 -0.77369,10.57083 0.74784,21.02811 4.85223,30.73841 2.8188,6.70225 6.59591,13.26225 12.60646,18.45699 2.38553,1.99534 5.19261,3.80457 8.82219,4.41102 4.93564,0.99729 10.30724,0.44881 15.46203,-0.46433 1.29214,-0.19333 2.58254,-0.35966 3.85391,-0.67323 7.4505,-2.42209 13.78541,-7.11763 17.7605,-12.53679 4.39379,-6.64242 4.69922,-13.96812 4.73613,-20.91787 -0.0994,-10.32149 -2.38178,-20.46786 -6.75595,-29.87945 5.06956,5.12171 10.89705,9.38023 17.41224,12.58326 6.51922,3.21959 13.64692,5.72103 21.59115,5.7112 3.10965,-0.0541 6.42481,-0.51929 9.56514,-2.43768 4.3833,-2.47836 8.07798,-6.4282 11.37598,-10.49375 0.84991,-0.99246 1.72843,-1.97203 2.48413,-3.04138 4.04493,-6.70925 5.74486,-14.38171 5.20047,-21.0804 -1.02893,-7.89735 -5.57595,-13.64467 -10.09911,-18.92133 -8.14569,-9.22043 -18.48128,-16.2116 -30.25084,-20.3839 10.35348,-4.00331 19.52366,-10.2164 26.69876,-18.57302 4.74638,-5.50802 8.93626,-11.78379 10.91165,-19.47851 0.7247,-3.02447 1.09617,-6.37012 0.0234,-9.89017 -1.30445,-4.86351 -4.20062,-9.41872 -7.31316,-13.62796 -0.74848,-1.07088 -1.47502,-2.15845 -2.32162,-3.15741 -5.48579,-5.59301 -12.48482,-9.16137 -19.10703,-10.30806 -7.90396,-0.97693 -14.60873,1.99996 -20.84823,5.06117 -8.46973,4.31354 -15.97679,10.22026 -22.1716,17.45866 1.13209,-9.42765 0.36162,-18.89013 -2.53057,-27.92922 -2.20335,-6.92905 -5.34727,-13.80974 -10.86523,-19.52492 -2.19604,-2.2023 -4.82093,-4.26938 -8.38108,-5.20045 -3.01608,-0.89878 -6.28232,-1.21141 -9.56514,-1.20723 z m 15.02094,90.9847 c 0.0532,0.88717 0.1401,1.79487 0.32503,2.71632 1.20878,5.54139 5.0884,11.1422 9.93659,14.34767 -3.69121,3.58793 -6.4018,8.45036 -6.89524,13.18691 -1.05786,6.85136 1.29366,12.57982 3.48244,17.96935 0.60063,1.49303 1.24929,2.97072 1.92696,4.4112 -0.21965,-0.22755 -0.42714,-0.47104 -0.65006,-0.6966 -3.38007,-3.3412 -7.08491,-6.80094 -12.5136,-8.26499 -5.97151,-1.50339 -13.40721,-0.25036 -18.52661,3.27352 -0.0602,-1.27962 -0.24539,-2.58409 -0.58042,-3.92358 -1.69575,-6.32753 -6.92302,-12.57113 -12.95469,-15.06733 2.67748,-1.12829 5.26643,-2.64525 7.5453,-5.01473 4.77109,-5.13045 7.32482,-13.62381 5.61836,-20.29106 0.58949,0.28868 1.2146,0.55208 1.85729,0.78934 6.61229,2.31586 15.42322,1.23987 20.84826,-2.99491 0.2021,-0.14244 0.38604,-0.29452 0.58039,-0.44111 z"
       style="color:#000000;fill:#ffffff;fill-opacity:1;fill-rule:nonzero;stroke:#000000;stroke-width:2;stroke-miterlimit:4;stroke-opacity:1;stroke-dashoffset:0;marker:none;visibility:visible;display:inline;overflow:visible;enable-background:accumulate"
       inkscape:connector-curvature="0" />
    <path
       inkscape:connector-curvature="0"
       id="path5811-0-4-0"
       d="m 861.00032,737.18199 c -11.36641,0.46717 -22.87281,4.65457 -30.94413,12.86004 -5.03794,5.01785 -9.24116,10.87479 -12.54635,17.15928 -4.19155,9.38962 -3.4362,20.41937 0.5593,29.74023 4.98071,12.98569 14.96848,24.34538 27.98046,29.63331 10.9506,4.14472 23.42548,2.83585 33.91078,-2.05509 10.76427,-4.81178 20.17916,-13.51774 24.19347,-24.7831 4.55498,-12.62571 3.04948,-26.88198 -2.50834,-38.94092 -3.70361,-8.21969 -9.64493,-15.84577 -18.04613,-19.4962 -7.08382,-3.18508 -14.89773,-4.30547 -22.59906,-4.11755 z"
       style="color:#000000;fill:#feca00;fill-opacity:1;fill-rule:nonzero;stroke:#000000;stroke-width:2;stroke-miterlimit:4;stroke-opacity:1;stroke-dashoffset:0;marker:none;visibility:visible;display:inline;overflow:visible;enable-background:accumulate" />
  </g>
</svg>
