<?xml version="1.0" encoding="UTF-8" standalone="no"?>
<!-- Created with Inkscape (http://www.inkscape.org/) -->

<svg
   xmlns:dc="http://purl.org/dc/elements/1.1/"
   xmlns:cc="http://creativecommons.org/ns#"
   xmlns:rdf="http://www.w3.org/1999/02/22-rdf-syntax-ns#"
   xmlns:svg="http://www.w3.org/2000/svg"
   xmlns="http://www.w3.org/2000/svg"
   xmlns:sodipodi="http://sodipodi.sourceforge.net/DTD/sodipodi-0.dtd"
   xmlns:inkscape="http://www.inkscape.org/namespaces/inkscape"
   id="svg6659"
   height="81.391617"
   width="79.365112"
   version="1.1"
   inkscape:version="0.48.3.1 r9886"
   sodipodi:docname="star.svg">
  <defs
     id="defs7278" />
  <sodipodi:namedview
     pagecolor="#ffffff"
     bordercolor="#666666"
     borderopacity="1"
     objecttolerance="10"
     gridtolerance="10"
     guidetolerance="10"
     inkscape:pageopacity="0"
     inkscape:pageshadow="2"
     inkscape:window-width="1301"
     inkscape:window-height="744"
     id="namedview7276"
     showgrid="false"
     fit-margin-top="0"
     fit-margin-left="0"
     fit-margin-right="0"
     fit-margin-bottom="0"
     inkscape:zoom="2.2348078"
     inkscape:cx="65.211361"
     inkscape:cy="40.741234"
     inkscape:window-x="65"
     inkscape:window-y="24"
     inkscape:window-maximized="1"
     inkscape:current-layer="svg6659" />
  <metadata
     id="metadata6664">
    <rdf:RDF>
      <cc:Work
         rdf:about="">
        <dc:format>image/svg+xml</dc:format>
        <dc:type
           rdf:resource="http://purl.org/dc/dcmitype/StillImage" />
        <dc:title></dc:title>
      </cc:Work>
    </rdf:RDF>
  </metadata>
  <g
     id="g7366"
     transform="translate(-0.11864053,-1.1006136)">
    <path
       inkscape:connector-curvature="0"
       id="path5853"
       d="m 46.379658,2.9694731 c -2.352624,1.1141155 -4.122274,3.1835857 -5.322951,5.4521167 -1.929338,3.6191622 -2.830364,7.6848252 -3.307133,11.7301712 -0.242416,1.776131 -0.210949,3.581809 0.02653,5.356531 0.510302,4.530014 1.648141,8.970815 3.111242,13.281488 2.192857,6.376738 5.22543,12.451414 8.855704,18.128642 2.051118,3.169456 4.484844,6.186645 7.644567,8.311209 2.376678,1.599996 5.205792,2.635719 8.096251,2.561896 2.551942,-0.0584 5.052077,-0.968581 7.103095,-2.476134 3.118727,-2.259858 5.325492,-5.803994 5.817862,-9.63851 0.165568,-1.406973 0.08425,-2.892441 -0.57542,-4.172967 -0.658155,-1.380785 -1.783712,-2.483948 -3.058128,-3.304904 -2.162872,-1.415158 -4.675157,-2.17445 -7.176801,-2.735776 -2.107253,-0.471415 -4.268313,-0.694663 -6.427549,-0.649707 -1.106423,-0.01007 -2.213298,0.0025 -3.319149,-0.04062 0.933598,-2.812572 2.37581,-5.448752 3.030262,-8.354448 1.450751,-5.48963 2.551534,-11.113801 2.661555,-16.806593 0.04934,-3.37967 -0.285875,-6.828171 -1.544198,-9.9913939 C 61.073464,7.3762795 59.559124,5.3153952 57.462416,4.0445334 55.57991,2.8889701 53.390473,2.2934023 51.200005,2.1176299 49.557202,2.0161466 47.875053,2.2622311 46.379658,2.9694731 z"
       style="fill:#0088aa;fill-opacity:1;stroke:#000000;stroke-width:2;stroke-opacity:1" />
    <path
       inkscape:connector-curvature="0"
       id="path5853-0"
       d="m 8.3910846,18.866827 c 2.4449254,-0.89355 5.1610624,-0.701279 7.6195854,0.03596 3.931963,1.16634 7.460113,3.378495 10.675985,5.878554 1.435172,1.074099 2.699137,2.364005 3.796442,3.778909 2.868193,3.543291 5.232346,7.470907 7.275502,11.53884 3.002411,6.037958 5.200247,12.461952 6.695454,19.032657 0.817592,3.685659 1.258164,7.536938 0.553371,11.278714 -0.528748,2.81585 -1.776972,5.557846 -3.858505,7.56469 -1.832926,1.77657 -4.236152,2.918331 -6.749582,3.320896 -3.79872,0.634935 -7.871986,-0.281149 -10.94865,-2.622106 -1.118305,-0.869702 -2.119212,-1.970345 -2.568185,-3.33904 -0.521441,-1.437997 -0.517059,-3.014014 -0.207191,-4.497956 0.510312,-2.533825 1.73302,-4.856127 3.089255,-7.031888 1.14343,-1.831751 2.501381,-3.527625 4.049074,-5.033935 0.769481,-0.795093 1.555401,-1.574619 2.300942,-2.392504 C 27.456053,55.06927 24.566135,54.245988 22.037228,52.672456 17.109011,49.852278 12.33063,46.688403 8.198841,42.770713 5.7571134,40.433498 3.5363034,37.774076 2.1666488,34.657443 1.2154257,32.425508 0.81059837,29.900317 1.3772389,27.514905 1.8756384,25.362987 2.9883325,23.385552 4.40074,21.702058 5.481625,20.460773 6.8376764,19.43544 8.3910846,18.866827 z"
       style="fill:#0088aa;fill-opacity:1;stroke:#000000;stroke-width:2;stroke-opacity:1;display:inline" />
    <path
       inkscape:connector-curvature="0"
       id="path5858-1"
       d="m 35.684151,62.640383 c 1.93776,-0.737587 4.327631,0.635116 4.671718,2.697864 0.349115,1.955226 -1.141474,4.073699 -3.179202,4.154335 -1.79332,0.161171 -3.650265,-1.192031 -3.787085,-3.046511 -0.206618,-1.383909 0.47225,-2.933973 1.792298,-3.568515 0.163677,-0.08583 0.324719,-0.182958 0.502315,-0.237067 z"
       style="color:#000000;fill:#ffff00;fill-opacity:1;fill-rule:nonzero;stroke:none;stroke-width:1;marker:none;visibility:visible;display:inline;overflow:visible;enable-background:accumulate" />
    <path
       inkscape:connector-curvature="0"
       id="rect5855"
       d="m 29.44229,16.622128 c -1.275982,0.590368 -2.514476,1.472133 -3.136277,2.704562 -0.436674,0.851608 -0.179156,1.807934 0.212056,2.577018 0.41081,0.715082 0.884283,1.394951 1.272245,2.123418 2.125482,3.779346 3.593957,7.865945 5.308204,11.833485 3.575812,8.484295 7.101299,16.990346 10.795605,25.424232 0.843896,1.919137 1.813519,3.784321 2.94516,5.556167 0.491229,0.826034 0.921992,1.686683 1.415702,2.51 0.653102,0.906815 1.881618,1.302865 3.06688,1.186587 1.007575,-0.0805 1.989781,-0.650972 2.45997,-1.51825 0.501568,-0.834804 0.593951,-1.838535 0.482396,-2.752921 -0.166483,-1.978614 -0.904027,-3.823509 -1.562047,-5.664405 -1.162456,-3.104482 -2.496477,-6.140063 -3.746155,-9.209403 -3.473033,-8.418975 -7.01471,-16.80942 -10.476511,-25.233042 -0.457837,-1.151579 -0.964189,-2.285124 -1.371253,-3.456216 -0.582425,-1.760627 -0.838099,-3.638549 -1.64883,-5.316484 -0.52424,-0.892333 -1.571286,-1.494688 -2.705391,-1.451607 -1.123373,-0.0538 -2.270729,0.223729 -3.311754,0.686859 z"
       style="color:#000000;fill:#ffff00;fill-opacity:1;stroke:#000000;stroke-width:2;stroke-miterlimit:4;stroke-opacity:1;stroke-dasharray:none;marker:none;visibility:visible;display:inline;overflow:visible;enable-background:accumulate" />
    <path
       inkscape:connector-curvature="0"
       id="path5858"
       d="m 58.398022,53.135144 c -1.885538,0.862377 -2.58543,3.528075 -1.357817,5.221088 1.147504,1.621119 3.702655,2.046541 5.190468,0.651818 1.37361,-1.164117 1.713304,-3.436562 0.488534,-4.83576 -0.840623,-1.118593 -2.421151,-1.723151 -3.799695,-1.228393 -0.176023,0.05633 -0.358244,0.102846 -0.521445,0.191353 z"
       style="color:#000000;fill:#ffff00;fill-opacity:1;fill-rule:nonzero;stroke:none;stroke-width:1;marker:none;visibility:visible;display:inline;overflow:visible;enable-background:accumulate" />
    <path
       inkscape:connector-curvature="0"
       id="path5858-3"
       d="m 43.761098,18.158515 c -1.885538,0.862377 -2.58543,3.528075 -1.357817,5.221088 1.147504,1.621119 3.702655,2.046541 5.190468,0.651818 1.37361,-1.164117 1.713304,-3.436562 0.488534,-4.83576 -0.840623,-1.118593 -2.421151,-1.723151 -3.799695,-1.228393 -0.176023,0.05633 -0.358244,0.102846 -0.521445,0.191353 z"
       style="color:#000000;fill:#ffff00;fill-opacity:1;fill-rule:nonzero;stroke:none;stroke-width:1;marker:none;visibility:visible;display:inline;overflow:visible;enable-background:accumulate" />
    <path
       inkscape:connector-curvature="0"
       id="path5858-3-8"
       d="m 49.234035,31.236733 c -1.885538,0.862377 -2.58543,3.528075 -1.357817,5.221088 1.147504,1.621118 3.702655,2.046541 5.190468,0.651818 1.373609,-1.164117 1.713303,-3.436563 0.488533,-4.835761 -0.840622,-1.118592 -2.42115,-1.72315 -3.799695,-1.228392 -0.176022,0.05633 -0.358244,0.102846 -0.521445,0.191353 z"
       style="color:#000000;fill:#ffff00;fill-opacity:1;fill-rule:nonzero;stroke:none;stroke-width:1;marker:none;visibility:visible;display:inline;overflow:visible;enable-background:accumulate" />
    <path
       inkscape:connector-curvature="0"
       id="path5858-3-7"
       d="m 50.339884,8.257295 c -1.885538,0.862377 -2.58543,3.528075 -1.357817,5.221088 1.147504,1.621119 3.702655,2.046541 5.190468,0.651818 1.37361,-1.164117 1.713304,-3.436562 0.488534,-4.8357604 C 53.820446,8.175848 52.239918,7.5712903 50.861374,8.0660478 50.685351,8.1223749 50.50313,8.1688941 50.339929,8.2574014 z"
       style="color:#000000;fill:#ffff00;fill-opacity:1;fill-rule:nonzero;stroke:none;stroke-width:1;marker:none;visibility:visible;display:inline;overflow:visible;enable-background:accumulate" />
    <path
       inkscape:connector-curvature="0"
       id="path5858-3-8-3"
       d="m 55.812821,21.335513 c -1.885538,0.862377 -2.58543,3.528075 -1.357817,5.221088 1.147504,1.621118 3.702655,2.046541 5.190468,0.651818 1.373609,-1.164117 1.713303,-3.436563 0.488533,-4.835761 -0.840622,-1.118592 -2.42115,-1.72315 -3.799695,-1.228392 -0.176022,0.05633 -0.358244,0.102846 -0.521445,0.191353 z"
       style="color:#000000;fill:#ffff00;fill-opacity:1;fill-rule:nonzero;stroke:none;stroke-width:1;marker:none;visibility:visible;display:inline;overflow:visible;enable-background:accumulate" />
    <path
       inkscape:connector-curvature="0"
       id="path5920"
       d="m 32.30037,16.262813 c 0,0 -0.696187,-8.3977534 0.851508,-9.7499502 1.547697,-1.3521974 1.547697,-1.3521974 1.547697,-1.3521974"
       style="fill:none;stroke:#000000;stroke-width:2;stroke-linecap:butt;stroke-linejoin:miter;stroke-opacity:1" />
    <path
       inkscape:connector-curvature="0"
       id="path5858-3-3"
       d="m 34.649034,3.6636566 c -0.841722,0.4285656 -1.217555,1.637479 -0.645575,2.4224654 0.584548,0.8057288 1.983958,0.7752865 2.504695,-0.08448 C 36.962856,5.2702805 36.928092,4.2620713 36.437087,3.5609999 35.899313,3.183761 35.188159,3.4184054 34.649034,3.6636566 z"
       style="color:#000000;fill:#000000;fill-opacity:1;fill-rule:nonzero;stroke:none;stroke-width:1;marker:none;visibility:visible;display:inline;overflow:visible;enable-background:accumulate" />
    <path
       inkscape:connector-curvature="0"
       id="path5858-3-81"
       d="m 21.047227,27.663754 c 1.93776,-0.737587 4.327631,0.635116 4.671718,2.697864 0.349115,1.955226 -1.141474,4.073699 -3.179202,4.154335 -1.79332,0.161171 -3.650265,-1.192031 -3.787085,-3.046511 -0.206618,-1.383909 0.47225,-2.933973 1.792298,-3.568515 0.163677,-0.08583 0.324719,-0.182958 0.502315,-0.237067 z"
       style="color:#000000;fill:#ffff00;fill-opacity:1;fill-rule:nonzero;stroke:none;stroke-width:1;marker:none;visibility:visible;display:inline;overflow:visible;enable-background:accumulate" />
    <path
       inkscape:connector-curvature="0"
       id="path5920-5"
       d="m 27.917503,18.096943 c 0,0 -5.492419,-6.390639 -7.541894,-6.237502 -2.049476,0.153138 -2.049476,0.153138 -2.049476,0.153138"
       style="fill:none;stroke:#000000;stroke-width:2;stroke-linecap:butt;stroke-linejoin:miter;stroke-opacity:1;display:inline" />
    <path
       inkscape:connector-curvature="0"
       id="path5858-3-3-8"
       d="m 17.295401,10.925758 c 0.896081,-0.298666 2.020918,0.282251 2.178505,1.240652 0.163539,0.981911 -0.840457,1.957239 -1.818337,1.72461 -0.840073,-0.189528 -1.533744,-0.921999 -1.688405,-1.763823 0.10881,-0.647819 0.775124,-0.989614 1.328237,-1.201439 z"
       style="color:#000000;fill:#000000;fill-opacity:1;fill-rule:nonzero;stroke:none;stroke-width:1;marker:none;visibility:visible;display:inline;overflow:visible;enable-background:accumulate" />
    <path
       inkscape:connector-curvature="0"
       id="path5858-3-8-8"
       d="m 26.520163,40.741972 c 1.937761,-0.737587 4.327631,0.635116 4.671719,2.697864 0.349115,1.955226 -1.141474,4.073699 -3.179202,4.154335 -1.79332,0.16117 -3.650265,-1.192031 -3.787085,-3.046511 -0.206618,-1.38391 0.47225,-2.933973 1.792298,-3.568515 0.163677,-0.08583 0.324719,-0.182958 0.502315,-0.237067 z"
       style="color:#000000;fill:#ffff00;fill-opacity:1;fill-rule:nonzero;stroke:none;stroke-width:1;marker:none;visibility:visible;display:inline;overflow:visible;enable-background:accumulate" />
    <path
       inkscape:connector-curvature="0"
       id="path5858-3-7-9"
       d="m 9.3773366,25.39919 c 1.9377604,-0.737587 4.3276314,0.635116 4.6717184,2.697864 0.349115,1.955226 -1.141474,4.073699 -3.179202,4.154335 -1.79332,0.161171 -3.6502648,-1.192031 -3.7870852,-3.046511 -0.2066177,-1.383909 0.4722503,-2.933973 1.7922983,-3.568515 0.1636766,-0.08583 0.324719,-0.182958 0.502315,-0.237067 z"
       style="color:#000000;fill:#ffff00;fill-opacity:1;fill-rule:nonzero;stroke:none;stroke-width:1;marker:none;visibility:visible;display:inline;overflow:visible;enable-background:accumulate" />
    <path
       inkscape:connector-curvature="0"
       id="path5858-3-8-3-4"
       d="m 14.850273,38.477408 c 1.937761,-0.737587 4.327631,0.635116 4.671719,2.697864 0.349115,1.955226 -1.141474,4.073699 -3.179202,4.154335 -1.79332,0.16117 -3.650265,-1.192031 -3.787085,-3.046511 -0.206618,-1.38391 0.47225,-2.933973 1.792298,-3.568515 0.163677,-0.08583 0.324719,-0.182958 0.502315,-0.237067 z"
       style="color:#000000;fill:#ffff00;fill-opacity:1;fill-rule:nonzero;stroke:none;stroke-width:1;marker:none;visibility:visible;display:inline;overflow:visible;enable-background:accumulate" />
  </g>
</svg>
