<?xml version="1.0" encoding="UTF-8" standalone="no"?>
<!-- Created with Inkscape (http://www.inkscape.org/) -->
<svg id="svg7961" xmlns:rdf="http://www.w3.org/1999/02/22-rdf-syntax-ns#" xmlns="http://www.w3.org/2000/svg" height="42" width="38" version="1.1" xmlns:cc="http://creativecommons.org/ns#" xmlns:dc="http://purl.org/dc/elements/1.1/">
 <metadata id="metadata7966">
  <rdf:RDF>
   <cc:Work rdf:about="">
    <dc:format>image/svg+xml</dc:format>
    <dc:type rdf:resource="http://purl.org/dc/dcmitype/StillImage"/>
    <dc:title/>
   </cc:Work>
  </rdf:RDF>
 </metadata>
 <g id="layer1" transform="translate(-526.93655,-428.14423)">
  <g id="g6536-7-0-6" fill-rule="nonzero" stroke-dashoffset="0" transform="translate(526.7364,-433.73984)" stroke="#000" stroke-miterlimit="4" stroke-width="2">
   <path id="path5818-0-9-6-7-6-4-2" style="enable-background:accumulate;color:#000000;" d="m18.635,863.6c-0.33721,0.00034-0.67468,0.0231-1.0096,0.0517-0.2233,0.0131-0.44612,0.0218-0.66773,0.0557-1.3077,0.29801-2.4581,0.99748-3.2195,1.8601-0.85164,1.0648-1.0193,2.3093-1.1328,3.4937-0.1693,2.0958,0.1932,4.1968,1.0731,6.1408-1.7027-1.2831-3.6575-2.1061-5.7473-2.3212-1.238-0.12967-2.5327-0.10786-3.8077,0.36566-0.49608,0.1934-1.0009,0.46729-1.3911,0.96186-0.55658,0.65832-0.91629,1.5122-1.2043,2.3609-0.077517,0.20983-0.15681,0.41934-0.21463,0.63594-0.25089,1.3176-0.071979,2.6492,0.41336,3.6924,0.63436,1.2069,1.7068,1.8579,2.7465,2.4364,1.3149,0.70617,2.742,1.1689,4.2211,1.3673-1.8147,0.76809-3.3986,1.9272-4.5986,3.4659-0.7673,0.98016-1.4333,2.0904-1.7091,3.4222-0.099563,0.52305-0.13633,1.0959,0.07552,1.6892,0.26224,0.8212,0.79313,1.5788,1.3593,2.2735,0.13662,0.17712,0.27246,0.35667,0.42529,0.52069,0.98318,0.91228,2.2089,1.467,3.3506,1.6097,1.3595,0.10339,2.4831-0.45963,3.5255-1.0334,1.3666-0.77907,2.5665-1.8058,3.5493-3.0366-0.13246,1.8097,0.12803,3.6,0.8307,5.2624,0.48258,1.1474,1.1292,2.2705,2.1582,3.1598,0.4084,0.34161,0.88897,0.65135,1.5104,0.75517,0.84498,0.17074,1.7646,0.0768,2.6471-0.0795,0.22121-0.0331,0.44213-0.0616,0.65979-0.11526,1.2755-0.41466,2.3601-1.2185,3.0406-2.1463,0.75222-1.1372,0.80451-2.3913,0.81082-3.5811-0.01702-1.767-0.40776-3.5041-1.1566-5.1154,0.86791,0.87684,1.8656,1.6059,2.981,2.1542,1.1161,0.5512,2.3364,0.97944,3.6964,0.97776,0.53237-0.009,1.0999-0.0889,1.6376-0.41733,0.75042-0.4243,1.3829-1.1005,1.9476-1.7965,0.1455-0.16991,0.29591-0.33761,0.42528-0.52068,0.69249-1.1486,0.98352-2.4622,0.89032-3.609-0.17615-1.352-0.9546-2.336-1.729-3.2393-1.3945-1.5785-3.164-2.7754-5.1789-3.4897,1.7725-0.68537,3.3424-1.749,4.5708-3.1797,0.81258-0.94297,1.5299-2.0174,1.8681-3.3347,0.12407-0.51779,0.18766-1.0906,0.004-1.6932-0.22332-0.83263-0.71915-1.6125-1.252-2.3331-0.12814-0.18333-0.25252-0.36953-0.39746-0.54055-0.93917-0.95752-2.1374-1.5684-3.2711-1.7647-1.3532-0.16725-2.501,0.3424-3.5692,0.86648-1.45,0.73847-2.7352,1.7497-3.7958,2.9889,0.19381-1.614,0.06191-3.234-0.43323-4.7815-0.37721-1.1863-0.91545-2.3642-1.8601-3.3427-0.37596-0.37703-0.82534-0.73091-1.4348-0.89031-0.51635-0.15387-1.0755-0.2074-1.6376-0.20668zm2.5716,15.577c0.0091,0.15188,0.02398,0.30728,0.05564,0.46503,0.20694,0.94868,0.87113,1.9075,1.7011,2.4563-0.63194,0.61425-1.096,1.4467-1.1805,2.2576-0.18111,1.173,0.22147,2.1537,0.59619,3.0764,0.10283,0.2556,0.21388,0.50858,0.3299,0.75519-0.0376-0.0389-0.07313-0.0806-0.11129-0.11926-0.57867-0.57201-1.2129-1.1643-2.1423-1.415-1.0223-0.25738-2.2953-0.0429-3.1718,0.56043-0.01031-0.21908-0.04201-0.4424-0.09937-0.67172-0.29031-1.0833-1.1852-2.1522-2.2178-2.5795,0.45838-0.19316,0.90161-0.45286,1.2918-0.85852,0.81681-0.87833,1.254-2.3324,0.96186-3.4738,0.10092,0.0494,0.20794,0.0945,0.31797,0.13513,1.132,0.39648,2.6405,0.21227,3.5692-0.51273,0.0346-0.0244,0.06609-0.0504,0.09936-0.0755z" fill="#FFF"/>
   <path id="path5811-0-4-0-5-7-6-4" style="enable-background:accumulate;color:#000000;" d="m19.329,875.36c-1.9459,0.08-3.9158,0.79686-5.2976,2.2016-0.8625,0.85905-1.5821,1.8618-2.1479,2.9377-0.71759,1.6075-0.58828,3.4958,0.09575,5.0915,0.8527,2.2232,2.5626,4.1679,4.7902,5.0732,1.8747,0.70958,4.0104,0.4855,5.8055-0.35183,1.8428-0.82377,3.4547-2.3142,4.1419-4.2429,0.77981-2.1615,0.52207-4.6022-0.42943-6.6667-0.63406-1.4072-1.6512-2.7128-3.0895-3.3378-1.2127-0.54528-2.5505-0.73709-3.869-0.70492z" fill="#feca00"/>
  </g>
 </g>
</svg>
