<?xml version="1.0" encoding="UTF-8" standalone="no"?>
<!-- Created with Inkscape (http://www.inkscape.org/) -->

<svg
   xmlns:dc="http://purl.org/dc/elements/1.1/"
   xmlns:cc="http://creativecommons.org/ns#"
   xmlns:rdf="http://www.w3.org/1999/02/22-rdf-syntax-ns#"
   xmlns:svg="http://www.w3.org/2000/svg"
   xmlns="http://www.w3.org/2000/svg"
   xmlns:sodipodi="http://sodipodi.sourceforge.net/DTD/sodipodi-0.dtd"
   xmlns:inkscape="http://www.inkscape.org/namespaces/inkscape"
   width="36.999996"
   height="37.000008"
   id="svg7867"
   version="1.1"
   inkscape:version="0.48.3.1 r9886"
   sodipodi:docname="footerBorder.svg">
  <defs
     id="defs7869" />
  <sodipodi:namedview
     id="base"
     pagecolor="#ffffff"
     bordercolor="#666666"
     borderopacity="1.0"
     inkscape:pageopacity="0.0"
     inkscape:pageshadow="2"
     inkscape:zoom="9.9560635"
     inkscape:cx="40.135204"
     inkscape:cy="21.61602"
     inkscape:document-units="px"
     inkscape:current-layer="layer1"
     showgrid="false"
     fit-margin-top="0"
     fit-margin-left="0"
     fit-margin-right="0"
     fit-margin-bottom="0"
     inkscape:window-width="1301"
     inkscape:window-height="744"
     inkscape:window-x="65"
     inkscape:window-y="24"
     inkscape:window-maximized="1" />
  <metadata
     id="metadata7872">
    <rdf:RDF>
      <cc:Work
         rdf:about="">
        <dc:format>image/svg+xml</dc:format>
        <dc:type
           rdf:resource="http://purl.org/dc/dcmitype/StillImage" />
        <dc:title></dc:title>
      </cc:Work>
    </rdf:RDF>
  </metadata>
  <g
     inkscape:label="Layer 1"
     inkscape:groupmode="layer"
     id="layer1"
     transform="translate(485.21428,-108.14789)">
    <path
       sodipodi:type="star"
       style="color:#000000;fill:#feca00;fill-opacity:1;fill-rule:nonzero;stroke:none;stroke-width:5.54589176;marker:none;visibility:visible;display:inline;overflow:visible;enable-background:accumulate"
       id="path9403-6-8-4-7-1-69-8-7-6-6"
       sodipodi:sides="3"
       sodipodi:cx="-53.19149"
       sodipodi:cy="1330.3204"
       sodipodi:r1="12.439626"
       sodipodi:r2="19.745438"
       sodipodi:arg1="-0.47569522"
       sodipodi:arg2="0.57150233"
       inkscape:flatsided="false"
       inkscape:rounded="0.18"
       inkscape:randomized="0"
       d="m -42.132979,1324.6236 c 1.425387,2.767 7.232702,13.7592 5.549166,16.3771 -1.683537,2.6179 -14.094427,1.8941 -17.203352,1.7451 -3.108924,-0.1491 -15.532129,-0.6159 -16.957517,-3.3828 -1.425387,-2.7669 5.406819,-13.1532 7.090355,-15.7711 1.683537,-2.6179 8.299427,-13.1433 11.408352,-12.9943 3.108924,0.1491 8.687608,11.2591 10.112996,14.026 z"
       inkscape:transform-center-x="0.46528564"
       inkscape:transform-center-y="-1.3946247"
       transform="matrix(0.69427751,-0.03587058,0.0365131,0.68206033,-484.82859,-772.62046)" />
    <path
       sodipodi:type="star"
       style="color:#000000;fill:#00a6c4;fill-opacity:1;fill-rule:nonzero;stroke:none;stroke-width:8.69038391;marker:none;visibility:visible;display:inline;overflow:visible;enable-background:accumulate"
       id="path9403-6-9-8-2-8-2-6-5-86-3-3-3-4"
       sodipodi:sides="3"
       sodipodi:cx="-53.19149"
       sodipodi:cy="1330.3204"
       sodipodi:r1="12.439626"
       sodipodi:r2="19.745438"
       sodipodi:arg1="-0.47569522"
       sodipodi:arg2="0.57150233"
       inkscape:flatsided="false"
       inkscape:rounded="0.18"
       inkscape:randomized="0"
       d="m -42.132979,1324.6236 c 1.425387,2.767 7.232702,13.7592 5.549166,16.3771 -1.683537,2.6179 -14.094427,1.8941 -17.203352,1.7451 -3.108924,-0.1491 -15.532129,-0.6159 -16.957517,-3.3828 -1.425387,-2.7669 5.406819,-13.1532 7.090355,-15.7711 1.683537,-2.6179 8.299427,-13.1433 11.408352,-12.9943 3.108924,0.1491 8.687608,11.2591 10.112996,14.026 z"
       inkscape:transform-center-x="0.57506888"
       inkscape:transform-center-y="-1.7236422"
       transform="matrix(-0.44306301,0.02289129,-0.02330132,-0.43526644,-448.46046,705.41341)" />
    <path
       sodipodi:type="arc"
       style="color:#000000;fill:#00a6c4;fill-opacity:1;fill-rule:nonzero;stroke:none;stroke-width:1;marker:none;visibility:visible;display:inline;overflow:visible;enable-background:accumulate"
       id="path10856-4-0-3"
       sodipodi:cx="94"
       sodipodi:cy="1803.1501"
       sodipodi:rx="5"
       sodipodi:ry="5"
       d="m 99,1803.1501 c 0,2.7615 -2.238576,5 -5,5 -2.761424,0 -5,-2.2385 -5,-5 0,-2.7614 2.238576,-5 5,-5 2.761424,0 5,2.2386 5,5 z"
       transform="matrix(0.57620808,0,0,0.56606856,-508.64388,-909.72837)" />
    <path
       sodipodi:type="arc"
       style="color:#000000;fill:#00a6c4;fill-opacity:1;fill-rule:nonzero;stroke:none;stroke-width:1;marker:none;visibility:visible;display:inline;overflow:visible;enable-background:accumulate"
       id="path10856-8-0-7-0"
       sodipodi:cx="94"
       sodipodi:cy="1803.1501"
       sodipodi:rx="5"
       sodipodi:ry="5"
       d="m 99,1803.1501 c 0,2.7615 -2.238576,5 -5,5 -2.761424,0 -5,-2.2385 -5,-5 0,-2.7614 2.238576,-5 5,-5 2.761424,0 5,2.2386 5,5 z"
       transform="matrix(0.57620808,0,0,0.56606856,-520.16804,-909.72837)" />
    <path
       sodipodi:type="arc"
       style="color:#000000;fill:#00a6c4;fill-opacity:1;fill-rule:nonzero;stroke:none;stroke-width:1;marker:none;visibility:visible;display:inline;overflow:visible;enable-background:accumulate"
       id="path10856-8-6-4-6-8"
       sodipodi:cx="94"
       sodipodi:cy="1803.1501"
       sodipodi:rx="5"
       sodipodi:ry="5"
       d="m 99,1803.1501 c 0,2.7615 -2.238576,5 -5,5 -2.761424,0 -5,-2.2385 -5,-5 0,-2.7614 2.238576,-5 5,-5 2.761424,0 5,2.2386 5,5 z"
       transform="matrix(0.57620808,0,0,0.56606856,-531.69221,-909.72837)" />
  </g>
</svg>
