<?xml version="1.0" encoding="UTF-8" standalone="no"?>
<!-- Created with Inkscape (http://www.inkscape.org/) -->

<svg
   xmlns:dc="http://purl.org/dc/elements/1.1/"
   xmlns:cc="http://creativecommons.org/ns#"
   xmlns:rdf="http://www.w3.org/1999/02/22-rdf-syntax-ns#"
   xmlns:svg="http://www.w3.org/2000/svg"
   xmlns="http://www.w3.org/2000/svg"
   xmlns:sodipodi="http://sodipodi.sourceforge.net/DTD/sodipodi-0.dtd"
   xmlns:inkscape="http://www.inkscape.org/namespaces/inkscape"
   width="609.02777"
   height="420.00827"
   id="svg4832"
   version="1.1"
   inkscape:version="0.48.3.1 r9886"
   sodipodi:docname="spritesheet.svg">
  <defs
     id="defs4834" />
  <sodipodi:namedview
     id="base"
     pagecolor="#ffffff"
     bordercolor="#666666"
     borderopacity="1.0"
     inkscape:pageopacity="0.0"
     inkscape:pageshadow="2"
     inkscape:zoom="1.3902192"
     inkscape:cx="396.15283"
     inkscape:cy="229.55646"
     inkscape:document-units="px"
     inkscape:current-layer="layer1"
     showgrid="true"
     inkscape:window-width="1301"
     inkscape:window-height="744"
     inkscape:window-x="65"
     inkscape:window-y="24"
     inkscape:window-maximized="1"
     fit-margin-top="0"
     fit-margin-left="0"
     fit-margin-right="0"
     fit-margin-bottom="0">
    <inkscape:grid
       type="xygrid"
       id="grid4840"
       empspacing="5"
       visible="true"
       enabled="true"
       snapvisiblegridlinesonly="true"
       originx="0.032021271px"
       originy="220.00826px" />
  </sodipodi:namedview>
  <metadata
     id="metadata4837">
    <rdf:RDF>
      <cc:Work
         rdf:about="">
        <dc:format>image/svg+xml</dc:format>
        <dc:type
           rdf:resource="http://purl.org/dc/dcmitype/StillImage" />
        <dc:title />
      </cc:Work>
    </rdf:RDF>
  </metadata>
  <g
     inkscape:label="Layer 1"
     inkscape:groupmode="layer"
     id="layer1"
     transform="translate(0.03202127,-852.36218)">
    <path
       style="color:#000000;fill:#00a6c4;fill-opacity:1;stroke:none;stroke-width:1;marker:none;visibility:visible;display:inline;overflow:visible;enable-background:accumulate"
       d="m 0,852.36218 0,54 200,0 0,-54 -200,0 z m 94.89573,0.80597 c 2.25533,0.0115 4.5304,0.0537 6.78494,0.0929 20.92442,0.56219 41.84676,1.42919 62.65173,3.09989 7.29245,0.43954 14.9337,1.54787 20.66604,4.86681 5.7364,3.57573 8.7978,8.65711 10.89325,13.6705 1.39431,3.97175 2.93919,7.94759 3.48584,12.02755 0.82986,4.34615 -1.42735,8.96416 -6.22472,11.90356 -7.05837,4.17004 -16.44061,5.8788 -25.52132,6.54076 -19.5969,1.03906 -39.25003,0.16082 -58.85465,-0.30999 -14.35476,-0.53127 -28.73871,-0.40831 -43.10613,-0.61997 -16.66399,-0.0928 -33.03298,-2.4794 -49.20635,-5.02182 -3.93833,-0.77878 -8.32119,-0.85223 -11.79583,-2.47991 -2.38584,-1.04405 -3.02113,-3.19469 -3.42359,-5.02181 -0.70501,-5.83917 -0.57426,-11.7205 -0.62247,-17.57635 -0.64339,-4.25716 1.7179,-8.74646 6.56707,-11.50058 10.33965,-5.31869 23.11137,-7.99878 35.85435,-8.89667 15.00628,-0.71585 30.07021,-0.43614 45.09803,-0.74397 2.25514,-0.0138 4.49848,-0.0424 6.75381,-0.031 z"
       id="rect5789"
       inkscape:connector-curvature="0"
       inkscape:export-filename="/home/alex/Desktop/AlexDatoDesign/PROJECTS/101_NURSERY_OWLETS/Website/css/img/sprite.png"
       inkscape:export-xdpi="90"
       inkscape:export-ydpi="90" />
    <path
       style="fill:#ffffff;fill-opacity:1;stroke:none;display:inline"
       d="m 107.86125,906.37416 c -18.498652,0.31556 -37.034612,0.0291 -55.506742,0.76288 -15.68609,0.92037 -31.40347,3.67226 -44.1311398,9.12421 -5.96915,2.82309 -8.88777003,7.43348 -8.09577003,11.79733 0.0594,6.00259 -0.0795,12.02086 0.7884,18.00634 0.49540003,1.87291 1.26205003,4.09874 4.19894003,5.16895 4.27713,1.66846 9.6578398,1.74865 14.5057598,2.54695 19.90878,2.60613 40.07788,5.04398 60.59059,5.13913 17.68571,0.21697 35.387832,0.0922 53.057952,0.63682 24.13253,0.48259 48.333,1.36796 72.45598,0.30286 11.17801,-0.67855 22.70683,-2.41796 31.39539,-6.69248 5.9053,-3.01305 8.6937,-7.74125 7.6723,-12.19629 -0.6729,-4.1822 -2.5603,-8.25908 -4.2766,-12.33036 -2.5794,-5.139 -6.3714,-10.35101 -13.43266,-14.01632 -7.05633,-3.40211 -16.46536,-4.55513 -25.44207,-5.00569 -25.6101,-1.71255 -51.36711,-2.59489 -77.12425,-3.17116 -5.55046,-0.0805 -11.10412,-0.10148 -16.65608,-0.0732 z"
       id="path5441-9"
       inkscape:connector-curvature="0"
       inkscape:export-filename="/home/alex/Desktop/AlexDatoDesign/PROJECTS/101_NURSERY_OWLETS/Website/css/img/sprite.png"
       inkscape:export-xdpi="90"
       inkscape:export-ydpi="90" />
    <path
       style="color:#000000;fill:#ffffff;fill-opacity:1;fill-rule:nonzero;stroke:none;stroke-width:1;marker:none;visibility:visible;display:inline;overflow:visible;enable-background:accumulate"
       d="m 0.00695612,960.36218 0,12.4375 c -0.029045,-0.97544 0.0327555,-1.92914 0.1875,-2.875 0.155161,-1.09725 0.468394,-2.16406 0.96874998,-3.125 0.912416,-1.64718 2.008124,-3.21804 3.46875,-4.40625 0.718399,-0.63101 1.553344,-1.14142 2.46875,-1.46875 1.2195826,-0.43945 2.5395618,-0.58895 3.8749999,-0.5625 l -10.96874988,0 z m 10.96874988,0 c 0.445146,0.009 0.898939,0.0469 1.34375,0.0937 1.357653,0.1338 2.684575,0.55004 3.9375,1.1875 1.155953,0.55994 2.205851,1.34582 3.1875,2.1875 0.827562,0.71639 1.607285,1.48831 2.25,2.375 0.927304,1.2119 1.610252,2.58873 1.96875,4.03125 0.218114,0.84732 0.327629,1.71093 0.34375,2.5625 l 0,-12.4375 -13.03125,0 z m 13.03125,12.4375 c 0.01612,0.85157 -0.0467,1.70141 -0.15625,2.53125 -0.326995,2.03363 -1.045822,3.98563 -2.25,5.59375 -0.482407,0.65868 -1.067579,1.2238 -1.6875,1.75 -1.353491,1.12433 -2.81519,2.18333 -4.5,2.8125 -0.595382,0.25096 -1.183077,0.5363 -1.84375,0.625 -0.893335,0.10165 -1.772435,0.2722 -2.6875,0.25 l 13.125,0 0,-13.5625 z m -13.125,13.5625 c -1.7918447,-0.0457 -3.6121759,-0.71359 -5.0937499,-1.875 -1.370113,-1.11648 -2.523638,-2.48847 -3.46875,-3.96875 -0.95092,-1.47584 -1.59465198,-3.11572 -1.96874998,-4.78125 -0.1881675,-0.97195 -0.314705,-1.96206 -0.34375,-2.9375 l 0,13.5625 10.87499988,0 z"
       id="rect4998"
       inkscape:connector-curvature="0" />
    <text
       xml:space="preserve"
       style="font-size:40px;font-style:normal;font-weight:normal;line-height:125%;letter-spacing:0px;word-spacing:0px;fill:#ffffff;fill-opacity:1;stroke:none;display:inline;font-family:Sans"
       x="7.8339844"
       y="980.20007"
       id="text4219-25"
       sodipodi:linespacing="125%"><tspan
         sodipodi:role="line"
         id="tspan4221-4"
         x="7.8339844"
         y="980.20007"
         style="font-size:18px;font-weight:bold;fill:#ffffff;fill-opacity:1;-inkscape-font-specification:Sans Bold">f</tspan></text>
    <path
       style="color:#000000;fill:#ffffff;fill-opacity:1;fill-rule:nonzero;stroke:none;stroke-width:1;marker:none;visibility:visible;display:inline;overflow:visible;enable-background:accumulate"
       d="m 24.006956,960.36218 0,12.4375 c -0.02904,-0.97544 0.03276,-1.92914 0.1875,-2.875 0.155161,-1.09725 0.468394,-2.16406 0.96875,-3.125 0.912416,-1.64718 2.008124,-3.21804 3.46875,-4.40625 0.718399,-0.63101 1.553344,-1.14142 2.46875,-1.46875 1.219582,-0.43945 2.539562,-0.58895 3.875,-0.5625 l -10.96875,0 z m 10.96875,0 c 0.445146,0.009 0.898939,0.0469 1.34375,0.0937 1.357653,0.1338 2.684575,0.55004 3.9375,1.1875 1.155953,0.55994 2.205851,1.34582 3.1875,2.1875 0.827562,0.71639 1.607285,1.48831 2.25,2.375 0.927304,1.2119 1.610252,2.58873 1.96875,4.03125 0.218114,0.84732 0.327629,1.71093 0.34375,2.5625 l 0,-12.4375 -13.03125,0 z m 13.03125,12.4375 c 0.01612,0.85157 -0.0467,1.70141 -0.15625,2.53125 -0.326995,2.03363 -1.045822,3.98563 -2.25,5.59375 -0.482407,0.65868 -1.067579,1.2238 -1.6875,1.75 -1.353491,1.12433 -2.81519,2.18333 -4.5,2.8125 -0.595382,0.25096 -1.183077,0.5363 -1.84375,0.625 -0.893335,0.10165 -1.772435,0.2722 -2.6875,0.25 l 13.125,0 0,-13.5625 z m -13.125,13.5625 c -1.791845,-0.0457 -3.612176,-0.71359 -5.09375,-1.875 -1.370113,-1.11648 -2.523638,-2.48847 -3.46875,-3.96875 -0.95092,-1.47584 -1.594652,-3.11572 -1.96875,-4.78125 -0.188168,-0.97195 -0.314705,-1.96206 -0.34375,-2.9375 l 0,13.5625 10.875,0 z"
       id="rect4998-3"
       inkscape:connector-curvature="0" />
    <text
       xml:space="preserve"
       style="font-size:40px;font-style:normal;font-weight:normal;line-height:125%;letter-spacing:0px;word-spacing:0px;fill:#ffffff;fill-opacity:1;stroke:none;display:inline;font-family:Sans"
       x="31.833984"
       y="980.20007"
       id="text4219-25-6"
       sodipodi:linespacing="125%"><tspan
         sodipodi:role="line"
         id="tspan4221-4-8"
         x="31.833984"
         y="980.20007"
         style="font-size:18px;font-weight:bold;fill:#ffffff;fill-opacity:1;-inkscape-font-specification:Sans Bold">t</tspan></text>
    <g
       transform="matrix(0.91428753,0,0,0.91428753,-0.02253484,986.28399)"
       id="layer1-8">
      <path
         inkscape:connector-curvature="0"
         id="path5892-7"
         style="color:#000000;fill:#0088aa;fill-rule:nonzero;enable-background:accumulate"
         d="m 206.59,0.73171 c -19.154,0.2023 -38.212,2.7087 -57.383,2.3171 -16.593,0.009 -33.194,-0.52036 -49.783,-0.0139 -11.585,0.54227 -23.321,2.7664 -33.43,8.1731 -16.056,8.1192 -29.829,20.459 -37.828,35.681 -8.601,16.386 -11.334,35.207 -8.25,53.138 1.6516,9.5926 5.0213,18.905 9.7908,27.572 6.1625,11.924 14.923,23.17 27.186,30.389 11.036,6.3306 23.971,9.1398 36.785,10.429 24.134,2.6698 48.379,4.5004 72.663,5.498 16.682,0.46999 33.328,-1.0789 49.896,-2.6781 18.242,-1.9756 36.469,-4.0859 54.663,-6.4078 15.311,-2.0316 30.7,-4.6065 45.113,-9.9141 10.524,-4.0981 20.617,-10.23 26.689,-19.321 6.7948,-10.01 8.6102,-22.387 6.4767,-33.897 -1.869,-15.388 -5.8932,-30.455 -9.4101,-45.572 -3.0299,-11.321 -6.7815,-22.887 -14.667,-32.247 -8.324,-9.5364 -20.906,-15.297 -33.842,-17.532 -16.831,-3.1946 -34.086,-3.3005 -51.161,-4.5208 -11.153,-0.68951 -22.325,-1.239 -33.508,-1.0927 z" />
      <path
         inkscape:connector-curvature="0"
         id="path24212"
         style="text-align:start;fill:#feca66;stroke:#000000;stroke-width:2"
         d="m 112.46,45.803 -0.25674,11.585 c -3e-5,3.8056 -0.0856,6.7158 -0.25673,8.7304 l -0.25674,2.7702 c -0.28529,4.5891 -1.3693,8.3667 -3.252,11.333 -1.7116,2.2945 -4.6498,4.0015 -8.8146,5.1207 -2.168,0.61561 -4.1078,0.92341 -5.8193,0.92341 -1.7116,-10e-7 -3.5087,-0.08395 -5.3914,-0.25184 -1.818,-0.112 -3.7,-0.587 -5.64,-1.427 -1.883,-0.839 -3.281,-2.266 -4.193,-4.281 -1.256,-2.127 -1.94,-5.233 -2.054,-9.318 -0.457,-8.563 -0.685,-13.767 -0.685,-15.614 -2e-6,-4.4212 0.08558,-8.0029 0.25674,-10.745 0.1141,-6.268 1.626,-11.053 4.5357,-14.355 0.68462,-0.67152 1.3407,-1.1752 1.9683,-1.511 3.309,-1.6229 7.0459,-2.4344 11.211,-2.4345 5.477,5.9e-5 9.9841,1.3152 13.521,3.9455 1.6545,1.4551 2.824,3.162 3.5087,5.1207 0.57049,1.2872 0.96985,2.8542 1.1981,4.701 0.28522,1.8469 0.42785,3.7497 0.42789,5.7084 m -10.954,18.468 0.17115,-4.3652 0,-4.0294 -0.17115,-5.7084 c -0.22825,-2.1266 -0.34235,-3.7216 -0.34232,-4.785 -0.28529,-3.4698 -1.7686,-5.8482 -4.4501,-7.1355 -0.79876,-0.33574 -1.569,-0.50363 -2.3106,-0.50368 l -4.3645,1.6789 c -1.9968,1.567 -3.3376,3.4978 -4.0222,5.7923 -0.57054,2.7423 -0.8558,5.3726 -0.85578,7.891 -1.2e-5,2.4625 0.02851,4.1974 0.08558,5.2047 0.39936,6.2121 0.94135,10.381 1.626,12.508 1.1981,2.4624 3.4802,3.6937 6.8463,3.6937 2.4532,1.1e-5 4.4786,-0.86744 6.0761,-2.6023 0.9128,-1.2312 1.3978,-2.0986 1.4548,-2.6023 0.057,-0.55963 0.0855,-1.3151 0.0856,-2.2666 0.057,-0.95138 0.11407,-1.8748 0.17116,-2.7702" />
      <path
         inkscape:connector-curvature="0"
         id="path24214"
         style="text-align:start;fill:#feca66;stroke:#000000;stroke-width:2"
         d="m 140.99,26.831 c 1.5974,-0.33573 3.9081,-0.50362 6.9319,-0.50368 3.0808,5.9e-5 4.7353,0.11199 4.9636,0.33579 -0.51351,5.9323 -1.4549,15.362 -2.8241,28.29 -1.3122,12.928 -2.2536,22.833 -2.8241,29.717 -0.34234,0.11193 -1.3122,0.16789 -2.9097,0.16789 h -4.1078 c -0.68465,-0.89543 -1.5404,-3.2459 -2.5674,-7.0515 -0.96991,-3.8056 -1.7972,-6.212 -2.4818,-7.2194 h -0.0856 c -0.7417,0.72755 -1.569,3.0221 -2.4818,6.8836 -0.91286,3.8615 -1.626,6.2121 -2.1395,7.0515 -1.5975,0.27982 -2.9097,0.41973 -3.9366,0.41973 -1.0269,0 -2.1965,-0.08395 -3.5087,-0.25184 h -0.0856 c -0.11411,-0.89543 -0.57053,-4.0015 -1.3693,-9.3181 l -1.4548,-10.241 c -2.0539,-14.271 -3.1949,-27.059 -3.4231,-38.364 v -0.08395 c 1.8827,-0.27976 3.3661,-0.41967 4.4501,-0.41973 1.084,6e-5 3.6799,0.08401 7.7876,0.25184 0.17114,1.9028 0.25672,7.2754 0.25673,16.118 0.0571,8.8424 0.57051,15.138 1.5404,18.888 2.6814,-9.6258 4.0222,-14.719 4.0222,-15.278 0.28524,0.2239 1.0554,2.7983 2.3106,7.7231 1.2551,4.8689 2.0539,7.7511 2.3962,8.6465 0.34229,-3.2459 0.59902,-9.1781 0.77021,-17.797 0.22818,-8.6744 0.48492,-14.635 0.7702,-17.881 V 26.8308" />
      <path
         inkscape:connector-curvature="0"
         id="path24216"
         style="text-align:start;fill:#feca66;stroke:#000000;stroke-width:2"
         d="m 193.61,76.611 0.25674,5.7084 c -5e-5,0.72754 -0.11415,1.3431 -0.34231,1.8468 -0.1712,0.50368 -0.37089,0.7835 -0.59906,0.83947 -0.17119,0.05597 -0.45646,0.08395 -0.85578,0.08395 h -0.68463 -1.2837 l -17.287,0.25184 c -4.0507,0 -9.1284,-0.05597 -15.233,-0.16789 v -1.511 c 0.45641,-17.181 0.68462,-26.863 0.68463,-29.046 l -0.4279,-28.542 c 1.0269,-0.50362 3.1664,-0.75546 6.4184,-0.75552 3.252,6e-5 5.6767,0.33585 7.2742,1.0074 -0.11412,2.4065 -0.17118,5.7644 -0.17116,10.074 l 0.25673,30.808 c -1e-5,1.7909 -1e-5,3.3019 0,4.5331 v 0.08395 c 0.3423,-0.11192 1.141,-0.16788 2.3962,-0.16789 l 18.656,0.67157 c 0.57048,1.3e-5 0.94133,1.3e-5 1.1125,0 l -0.17116,4.2813" />
      <path
         inkscape:connector-curvature="0"
         id="path24218"
         style="text-align:start;fill:#feca66;stroke:#000000;stroke-width:2"
         d="m 211.15,73.253 18.827,0.50368 c 1.3122,1.1e-5 2.5103,-0.02797 3.5943,-0.08395 v 0.16789 c 0.11407,1.3432 0.17112,3.0221 0.17116,5.0368 -4e-5,2.0147 -0.2853,4.0015 -0.85579,5.9602 l -24.304,0.25184 c -3.9366,0 -7.5309,-0.13991 -10.783,-0.41973 l -0.42789,-39.371 c -1e-5,-6.3239 0.17115,-12.34 0.51347,-18.049 9.6418,-0.50362 17.943,-0.75546 24.903,-0.75552 6.9604,5.9e-5 10.469,0.08401 10.526,0.25184 0.17111,1.1753 0.25669,2.4345 0.25673,3.7776 l -0.25673,8.1428 v 0.08395 c -2.5103,0.55969 -5.8194,0.83951 -9.9271,0.83947 h -4.4501 c -3.195,4.6e-5 -5.8764,0.05601 -8.0444,0.16789 h -0.25673 l -0.0856,0.08395 -0.25674,7.3034 c -1e-5,1.4551 0.14261,2.3226 0.4279,2.6023 3.0808,0.16793 6.5895,0.25188 10.526,0.25184 v 0.08395 c 0.22818,0.16793 0.34228,1.3432 0.34231,3.5258 l -0.17116,8.1428 c -1.1981,0.33581 -3.1379,0.5037 -5.8193,0.50368 -2.6244,2.4e-5 -4.1363,0.13993 -4.5357,0.41973 -0.22823,1.1753 -0.34233,2.6583 -0.34231,4.4492 -2e-5,1.7349 0.11408,3.7496 0.34231,6.0442 l 0.0856,0.08395" />
      <path
         inkscape:connector-curvature="0"
         id="path24220"
         style="text-align:start;fill:#feca66;stroke:#000000;stroke-width:2"
         d="m 247.3,84.334 0.0856,-11.333 c -1e-5,-10.745 -0.22822,-21.602 -0.68463,-32.571 l -0.0856,-0.08395 c -1.027,-0.50363 -2.9667,-0.78346 -5.8193,-0.83947 -2.7956,-0.05592 -4.2789,-0.11188 -4.4501,-0.16789 -0.34232,-0.67153 -0.51347,-2.5743 -0.51347,-5.7084 0,-3.1899 0.0571,-5.6803 0.17115,-7.4712 l -0.0855,-0.16789 c 3.9937,-0.11187 7.645,-0.16783 10.954,-0.16789 3.309,5.9e-5 7.0745,0.02804 11.296,0.08395 4.2218,5.9e-5 8.8431,0.27988 13.864,0.83946 0.11407,1.8469 0.17112,3.8896 0.17116,6.1281 -4e-5,2.2386 -0.1712,4.5332 -0.51347,6.8836 -0.68467,-0.11188 -1.8828,-0.16785 -3.5943,-0.16789 -1.7116,4.6e-5 -3.9937,0.05601 -6.8463,0.16789 h -0.25673 c -0.11414,0.2239 -0.17119,2.7983 -0.17116,7.7231 -3e-5,4.9249 0.17113,17.237 0.51347,36.937 v 0.16789 c -1.2552,0.22386 -3.252,0.33579 -5.9905,0.33579 l -2.1395,-0.08395 c -2.7385,0 -4.7068,0.11193 -5.9049,0.33579 -10e-6,-0.05597 -10e-6,-0.33579 0,-0.83947" />
      <path
         inkscape:connector-curvature="0"
         id="path24222"
         style="text-align:start;fill:#feca66;stroke:#000000;stroke-width:2"
         d="m 277.72,67.461 9.4136,0.25184 c 0.17114,2.4624 1.5119,4.1134 4.0222,4.9528 0.85575,0.3358 1.8256,0.50369 2.9097,0.50368 1.084,1.2e-5 2.1394,-0.41972 3.1664,-1.2592 1.0269,-0.89542 1.5404,-2.0707 1.5404,-3.5258 -3e-5,-1.8468 -0.45645,-3.2179 -1.3692,-4.1134 -1.1411,-1.1193 -2.1966,-1.8468 -3.1664,-2.1826 -0.96991,-0.39173 -1.8542,-0.67155 -2.6529,-0.83947 -0.79875,-0.22383 -1.3407,-0.36374 -1.626,-0.41973 -2.111,-0.39173 -3.2805,-0.61558 -3.5087,-0.67157 -1.9968,-0.39172 -3.9366,-1.3431 -5.8193,-2.8542 -3.8225,-3.5817 -5.7338,-7.8909 -5.7338,-12.928 -1e-5,-4.0854 1.4834,-7.9189 4.4501,-11.501 1.9398,-2.2945 4.2504,-4.0014 6.9319,-5.1207 2.4532,-0.89537 5.1062,-1.3431 7.9588,-1.3431 3.9936,5.9e-5 7.6735,0.75558 11.04,2.2666 2.9096,1.4551 5.0491,3.5818 6.4184,6.3799 0.9128,1.8469 1.3692,3.6657 1.3693,5.4565 -4e-5,1.7349 -0.14267,3.3299 -0.42789,4.785 h -0.0856 c -2.5103,0.39179 -4.8495,0.58767 -7.0174,0.58763 -2.168,4e-5 -4.1078,-0.22382 -5.8193,-0.67157 0.11408,-0.39171 0.17113,-0.78346 0.17116,-1.1753 -3e-5,-1.3431 -0.65612,-2.4624 -1.9683,-3.3579 -1.2552,-0.89539 -2.3392,-1.3431 -3.252,-1.3431 -4.1648,4.6e-5 -6.0476,2.0148 -5.6482,6.0442 0.68461,1.9588 2.5388,3.162 5.5626,3.6097 3.0238,0.33582 5.8193,1.2872 8.3867,2.8542 2.5673,1.567 4.7068,3.5538 6.4184,5.9602 2.168,2.7423 3.2519,5.8203 3.252,9.2341 -4e-5,3.4138 -0.62762,6.352 -1.8827,8.8144 -1.3122,3.3019 -3.4232,5.7364 -6.3328,7.3034 -2.9097,1.567 -6.0761,2.3505 -9.4992,2.3505 -3.5943,-10e-7 -7.0175,-0.67157 -10.269,-2.0147 -3.252,-1.3991 -5.8479,-3.3579 -7.7876,-5.8763 -1.8827,-2.5744 -2.8241,-5.3446 -2.8241,-8.3107 v -1.0074 -0.50368 c 0.34231,-0.22384 1.5689,-0.33577 3.6799,-0.33579" />
      <path
         inkscape:connector-curvature="0"
         id="path24224"
         style="text-align:start;fill:#feca66;stroke:#000000;stroke-width:2"
         d="m 125.34,140.02 0.0654,5.1356 0,1.2839 c -0.65445,0.21398 -1.3743,0.32097 -2.1596,0.32097 l -6.0207,-0.32097 c -4.0138,-8.4737 -6.6533,-14.401 -7.9185,-17.782 l -0.65443,-1.9258 c -0.43629,-1.2839 -0.71988,-1.9258 -0.85075,-1.9258 -0.30541,2e-5 -0.45811,3.3595 -0.4581,10.079 -1e-5,6.719 0.0218,10.571 0.0654,11.555 -0.82895,0.21398 -1.7888,0.32097 -2.8795,0.32097 l -6.2825,-0.38516 v -4.4936 l -0.19633,-23.174 c -3e-6,-6.8046 0.19632,-12.539 0.58898,-17.204 0.74168,-0.17114 1.6142,-0.25673 2.6177,-0.25677 1.0471,4e-5 2.2687,0.0643 3.6648,0.19257 1.3961,0.12844 2.0942,0.27823 2.0942,0.44937 0.43627,1.1127 0.98161,2.311 1.636,3.5949 0.69804,1.2839 1.2434,2.3966 1.6361,3.3381 0.39263,0.89876 1.3961,2.953 3.0104,6.1627 1.6578,3.2098 2.5304,4.8146 2.6177,4.8146 0.30539,-0.21396 0.45808,-1.3909 0.4581,-3.5307 l -0.19632,-9.3082 c -2e-5,-0.98427 0.0436,-2.8887 0.13089,-5.7133 1.4833,-0.25674 3.0539,-0.38513 4.7118,-0.38517 1.6578,4e-5 3.0976,0.12843 4.3192,0.38517 v 20.671 c 0.0436,2.3966 0.0654,6.0557 0.0654,10.977 l -0.0654,7.1256" />
      <path
         inkscape:connector-curvature="0"
         id="path24226"
         style="text-align:start;fill:#feca66;stroke:#000000;stroke-width:2"
         d="m 149.23,103.3 5.6935,-0.44937 c 1.876,5e-5 3.163,0.21403 3.8611,0.64195 0.17448,4.2369 0.26174,9.2226 0.26177,14.957 -3e-5,5.7347 -0.34905,11.833 -1.0471,18.295 -0.39268,2.9102 -1.5052,5.3282 -3.3376,7.254 -2.2251,2.311 -5.4317,3.4665 -9.62,3.4665 -4.93,0 -8.8347,-1.3909 -11.714,-4.1726 -1.7888,-1.7118 -2.7268,-3.8089 -2.814,-6.2911 l 0.3272,-28.181 c 0,-3.9372 -0.0436,-5.9486 -0.13088,-6.0343 h 0.0654 l 4.8427,-0.12839 c 1.9196,4e-5 3.3812,0.14984 4.3846,0.44937 v 0.0642 c -0.17452,3.6805 -0.26177,8.1313 -0.26176,13.352 -1e-5,5.2212 0.28357,11.277 0.85075,18.167 0.56715,1.9258 1.876,2.8888 3.9265,2.8888 0.65441,1e-5 1.3306,-0.17118 2.0287,-0.51356 1.1343,-0.55634 1.8324,-1.4551 2.0942,-2.6962 0.17449,-3.8944 0.30538,-9.4794 0.39265,-16.755 0.0872,-7.2753 0.15269,-12.047 0.19634,-14.315" />
      <path
         inkscape:connector-curvature="0"
         id="path24228"
         style="text-align:start;fill:#feca66;stroke:#000000;stroke-width:2"
         d="m 194.97,146.25 -8.5075,0.25678 c -1.0907,0 -1.8542,-0.0428 -2.2905,-0.12838 h -0.0654 c -3.1413,-7.1898 -6.1734,-12.561 -9.0965,-16.113 l -0.13088,-0.19258 c -0.0872,0.72755 -0.1309,2.1826 -0.13089,4.3652 -1e-5,2.1398 0.15268,5.9059 0.4581,11.298 -1.2216,0.47075 -3.643,0.70614 -7.2641,0.70614 h -3.3376 -0.78531 c 0.17451,0 0.26177,-6.7404 0.26178,-20.221 -1e-5,-13.524 -0.23996,-21.74 -0.71987,-24.651 5.1045,-0.72749 8.922,-1.0913 11.452,-1.0913 2.574,5e-5 4.4937,0.0643 5.7589,0.19258 2.5304,0.12844 4.8427,0.85597 6.9369,2.1826 4.0574,2.5678 6.2388,6.3981 6.5442,11.491 0.0436,0.21401 0.0654,0.42799 0.0654,0.64194 -3e-5,2.1398 -0.65446,4.2155 -1.9633,6.2269 -1.8324,3.5093 -4.6682,5.371 -8.5075,5.5849 h -0.32722 v 0.0642 c 0.43626,0.77034 2.225,3.5093 5.3663,8.2169 3.1412,4.6648 5.2354,8.3881 6.2825,11.17 m -21.661,-27.796 c 1.3525,0.12842 2.574,0.19262 3.6648,0.19259 1.0907,3e-5 2.0723,-0.0642 2.9449,-0.19259 1.876,-0.38513 2.814,-1.7974 2.814,-4.2368 -2e-5,-1.5406 -0.54537,-2.6961 -1.636,-3.4665 -0.91622,-0.81309 -2.0724,-1.2196 -3.4684,-1.2197 -1.3525,4e-5 -2.9231,0.34241 -4.7118,1.0271 0.0436,0.59918 0.0654,1.8831 0.0654,3.8517 0.0436,1.9687 0.13088,3.3168 0.26178,4.0442 h 0.0654" />
      <path
         inkscape:connector-curvature="0"
         id="path24230"
         style="text-align:start;fill:#feca66;stroke:#000000;stroke-width:2"
         d="m 198.67,132.96 7.1987,0.19258 c 0.13087,1.883 1.1561,3.1455 3.0758,3.7875 0.65441,0.25678 1.3961,0.38517 2.225,0.38516 0.82893,1e-5 1.636,-0.32096 2.4214,-0.96292 0.78529,-0.68473 1.178,-1.5834 1.178,-2.6962 -2e-5,-1.4122 -0.34905,-2.4608 -1.0471,-3.1455 -0.87258,-0.8559 -1.6797,-1.4123 -2.4214,-1.669 -0.7417,-0.29956 -1.4179,-0.51354 -2.0287,-0.64194 -0.6108,-0.17117 -1.0253,-0.27816 -1.2434,-0.32098 -1.6143,-0.29955 -2.5086,-0.47074 -2.6831,-0.51355 -1.527,-0.29955 -3.0104,-1.0271 -4.4501,-2.1826 -2.9231,-2.7389 -4.3846,-6.0342 -4.3846,-9.8859 0,-3.1241 1.1343,-6.0556 3.403,-8.7946 1.4834,-1.7546 3.2503,-3.0599 5.3008,-3.9159 1.876,-0.6847 3.9047,-1.0271 6.0861,-1.0271 3.054,4e-5 5.868,0.57779 8.4421,1.7332 2.225,1.1127 3.8611,2.739 4.9082,4.8788 0.69801,1.4123 1.047,2.8032 1.0471,4.1726 -3e-5,1.3267 -0.10911,2.5464 -0.32722,3.6591 h -0.0654 c -1.9197,0.2996 -3.7084,0.44939 -5.3663,0.44936 -1.6579,3e-5 -3.1413,-0.17116 -4.4501,-0.51356 0.0872,-0.29954 0.13087,-0.59912 0.13089,-0.89872 -2e-5,-1.0271 -0.50175,-1.883 -1.5052,-2.5678 -0.95985,-0.68471 -1.7888,-1.0271 -2.4868,-1.0271 -3.1849,4e-5 -4.6246,1.5407 -4.3192,4.622 0.52353,1.4979 1.9414,2.418 4.2538,2.7604 2.3123,0.25681 4.4501,0.98434 6.4134,2.1826 1.9632,1.1983 3.5993,2.7176 4.9082,4.5578 1.6578,2.097 2.4868,4.4508 2.4868,7.0614 -3e-5,2.6106 -0.47993,4.8574 -1.4397,6.7404 -1.0035,2.525 -2.6177,4.3866 -4.8427,5.5849 -2.2251,1.1983 -4.6464,1.7974 -7.2641,1.7974 -2.7486,0 -5.3663,-0.51355 -7.8531,-1.5407 -2.4868,-1.0699 -4.4719,-2.5678 -5.9552,-4.4936 -1.4397,-1.9686 -2.1596,-4.087 -2.1596,-6.3553 v -0.77032 -0.38518 c 0.26176,-0.17116 1.1998,-0.25677 2.814,-0.25677" />
      <path
         inkscape:connector-curvature="0"
         id="path24232"
         style="text-align:start;fill:#feca66;stroke:#000000;stroke-width:2"
         d="m 239.92,137.39 14.397,0.38516 c 1.0034,1e-5 1.9196,-0.0214 2.7486,-0.0642 v 0.12839 c 0.0872,1.0271 0.13085,2.311 0.13088,3.8517 -3e-5,1.5407 -0.21817,3.0599 -0.65442,4.5578 l -18.586,0.19258 c -3.0104,0 -5.759,-0.10698 -8.2458,-0.32097 l -0.32721,-30.107 c -1e-5,-4.836 0.13088,-9.4366 0.39266,-13.802 7.3732,-0.38512 13.721,-0.5777 19.044,-0.57775 5.3226,5e-5 8.0058,0.0643 8.0494,0.19259 0.13085,0.89876 0.19629,1.8617 0.19632,2.8887 l -0.19632,6.2269 v 0.0642 c -1.9197,0.428 -4.4501,0.64198 -7.5913,0.64195 h -3.403 c -2.4432,3e-5 -4.4937,0.0428 -6.1516,0.12839 h -0.19632 l -0.0654,0.0642 -0.19633,5.5849 c -2e-5,1.1127 0.10906,1.7761 0.32721,1.99 2.3559,0.1284 5.039,0.1926 8.0494,0.19257 v 0.0642 c 0.17449,0.12841 0.26174,1.0271 0.26176,2.6962 l -0.13088,6.2269 c -0.91621,0.2568 -2.3996,0.38518 -4.4501,0.38516 -2.0069,2e-5 -3.1631,0.10702 -3.4684,0.32098 -0.17452,0.89874 -0.26178,2.0328 -0.26177,3.4023 -1e-5,1.3267 0.0872,2.8674 0.26177,4.622 l 0.0654,0.0642" />
      <path
         inkscape:connector-curvature="0"
         id="path24234"
         style="text-align:start;fill:#feca66;stroke:#000000;stroke-width:2"
         d="m 291.98,146.25 -8.5075,0.25678 c -1.0907,0 -1.8542,-0.0428 -2.2905,-0.12838 h -0.0654 c -3.1413,-7.1898 -6.1734,-12.561 -9.0965,-16.113 l -0.13089,-0.19258 c -0.0872,0.72755 -0.1309,2.1826 -0.13088,4.3652 -2e-5,2.1398 0.15268,5.9059 0.4581,11.298 -1.2216,0.47075 -3.643,0.70614 -7.2641,0.70614 h -3.3376 -0.78531 c 0.17451,0 0.26177,-6.7404 0.26177,-20.221 0,-13.524 -0.23996,-21.74 -0.71987,-24.651 5.1045,-0.72749 8.922,-1.0913 11.452,-1.0913 2.574,5e-5 4.4937,0.0643 5.7589,0.19258 2.5304,0.12844 4.8427,0.85597 6.9369,2.1826 4.0574,2.5678 6.2388,6.3981 6.5442,11.491 0.0436,0.21401 0.0654,0.42799 0.0654,0.64194 -3e-5,2.1398 -0.65445,4.2155 -1.9633,6.2269 -1.8324,3.5093 -4.6682,5.371 -8.5075,5.5849 h -0.32722 v 0.0642 c 0.43626,0.77034 2.225,3.5093 5.3663,8.2169 3.1412,4.6648 5.2354,8.3881 6.2825,11.17 m -21.661,-27.796 c 1.3524,0.12842 2.574,0.19262 3.6648,0.19259 1.0907,3e-5 2.0723,-0.0642 2.9449,-0.19259 1.876,-0.38513 2.814,-1.7974 2.814,-4.2368 -2e-5,-1.5406 -0.54538,-2.6961 -1.6361,-3.4665 -0.91621,-0.81309 -2.0724,-1.2196 -3.4684,-1.2197 -1.3525,4e-5 -2.9231,0.34241 -4.7118,1.0271 0.0436,0.59918 0.0654,1.8831 0.0654,3.8517 0.0436,1.9687 0.13088,3.3168 0.26177,4.0442 h 0.0654" />
      <path
         inkscape:connector-curvature="0"
         id="path24236"
         style="text-align:start;fill:#feca66;stroke:#000000;stroke-width:2"
         d="m 293.13,102.02 5.628,-0.38516 c 1.3088,5e-5 2.3341,0.17123 3.0758,0.51355 0.39264,1.8403 1.1125,4.2369 2.1596,7.1898 1.0907,2.9102 2.0505,5.1998 2.8795,6.8688 0.65441,-1.1555 1.5924,-3.5306 2.814,-7.1256 1.2652,-3.6376 2.0942,-5.9058 2.4868,-6.8046 1.4833,-0.29953 3.2285,-0.44932 5.2354,-0.44936 2.0505,4e-5 3.4248,0.0429 4.1229,0.12839 v 0.0642 c -1.7015,5.3496 -4.93,12.925 -9.6855,22.725 -4.7119,9.7576 -7.8967,16.99 -9.5546,21.698 -0.34904,-0.0428 -0.89439,-0.0642 -1.6361,-0.0642 l -6.1516,0.19257 c -0.69805,0 -1.2216,-0.0214 -1.5706,-0.0642 h -0.13088 c 1.4397,-4.408 4.2974,-11.812 8.573,-22.211 v -0.12838 c -0.6108,-2.4822 -1.9851,-6.184 -4.1229,-11.106 -2.1378,-4.9215 -3.5121,-8.602 -4.1229,-11.041" />
      <path
         style="fill:#000000"
         inkscape:connector-curvature="0"
         id="path8431-9-8-0-9-3-8"
         d="m 68.381,145.32 c 0,0 3.7219,5.0377 1.9822,5.3393 -1.7396,0.30152 -3.563,-0.78055 -3.4889,-1.3746 0.074,-0.59404 1.8746,2.7726 0.85411,3.1836 -1.0204,0.41095 -4.7914,1.6884 -5.18,-2.022 -0.38863,-3.7104 0.36635,2.1256 0.36635,2.1256 0,0 0.30534,0.96414 -0.9423,1.3015 -1.2477,0.33729 -2.1992,-1.7015 -2.1992,-1.7015 0,0 -0.64822,-1.8169 1.1248,-3.7144 1.7731,-1.8976 7.4829,-3.1376 7.4829,-3.1376 z" />
      <path
         style="fill:#000000"
         inkscape:connector-curvature="0"
         id="path8431-45-8-1-5-2"
         d="m 29.77,150.55 c 0,0 -2.6178,5.6668 -0.85186,5.6205 1.766,-0.0465 3.3314,-1.4648 3.1376,-2.0322 -0.19378,-0.56746 -1.2704,3.0848 -0.18676,3.2869 1.0837,0.20215 5.0391,0.71286 4.6622,-2.9987 -0.37689,-3.7116 0.075,2.1545 0.075,2.1545 0,0 -0.10229,1.0046 1.189,1.09 1.29129,0.0854 1.8072,-2.0991 1.8072,-2.0991 0,0 0.26411,-1.9074 -1.8605,-3.4182 -2.1246,-1.5107 -7.9719,-1.6038 -7.9719,-1.6038 z" />
      <path
         inkscape:connector-curvature="0"
         id="path8314-7-3-6-3-3-0"
         style="color:#000000;fill:#552200;stroke:#000000;stroke-width:1.89089525;enable-background:accumulate"
         d="m 12.229,62.279 c -0.0188,0.003 -0.0405,0.01 -0.0584,0.0228 -0.57636,0.88433 -0.30695,2.09 0.0272,3.0633 l 2.4869,9.1517 c -1.2081,2.334 -2.648,4.5092 -3.6637,6.9732 -2.3288,5.1258 -3.9698,10.702 -4.6201,16.496 -0.38542,3.2686 -0.4629,6.607 -0.2285,9.9239 0.0913,1.3647 0.22905,2.7195 0.41429,4.0766 -1.9437,3.5824 -6.6382,12.675 -5.4232,14.853 0.79794,1.4301 3.9586,-1.8723 7.5935,-5.0929 1.3858,4.7032 3.1912,9.2664 5.425,13.567 2.0011,3.8397 4.4251,7.4444 7.3671,10.444 2.7168,2.8216 5.9914,4.8543 9.3865,6.3539 3.9897,1.7518 8.1311,3.1825 12.369,3.5734 2.1754,0.2347 4.3565,0.21925 6.512,-0.0264 3.3515,-0.4108 6.6349,-1.3628 9.6758,-2.9175 3.5602,-1.8134 6.8913,-4.2291 9.6721,-7.3067 2.8591,-3.1539 4.9076,-7.1492 6.3277,-11.382 1.3628,-4.1234 2.4452,-8.3757 3.2091,-12.718 0.57219,-3.4822 1.0201,-7.0381 0.87779,-10.623 -0.0308,-0.94096 -0.0928,-1.8778 -0.17566,-2.8167 3.8126,1.9782 7.0419,3.7825 7.3904,2.3652 0.60822,-2.474 -6.7847,-10.474 -9.4457,-13.254 -1.1484,-4.0185 -2.5989,-7.9462 -4.4333,-11.656 -1.7409,-3.4457 -3.7914,-6.7088 -6.2038,-9.6136 -1.4214,-1.7836 -3.0541,-3.3338 -4.5828,-4.9938 -0.35188,-0.32848 -0.61117,-0.75858 -0.70885,-1.2623 -0.21067,-1.0129 -0.0935,-2.0426 -0.20078,-3.0663 -0.15034,-3.0019 -0.0967,-6.0144 -0.45025,-9.0098 -0.10501,-0.40448 -0.29348,-0.99993 -0.75014,-0.96095 -0.76111,0.30055 -1.0296,1.261 -1.5916,1.8339 -1.5096,2.0082 -3.024,4.0062 -4.4944,6.0521 -0.54409,0.39638 -1.1486,-0.15299 -1.6763,-0.37688 -3.3546,-1.7069 -6.8792,-3.0497 -10.506,-3.5189 -3.1196,-0.44689 -6.3162,-0.15716 -9.2327,1.0103 -1.2442,0.50725 -2.4307,1.173 -3.6422,1.7644 -2.7593,1.403 -5.4007,3.0596 -7.9799,4.8251 -0.29447,0.37535 -0.79648,0.0512 -1.0523,-0.25602 -2.4653,-1.8531 -4.9303,-3.7085 -7.448,-5.4662 -0.0561,-0.0225 -0.11001,-0.0439 -0.16561,-0.0323 z" />
      <path
         style="fill:#ffffff;stroke:#000000;stroke-width:0.94544762;stroke-linecap:butt;stroke-linejoin:miter"
         inkscape:connector-curvature="0"
         id="path8317-2-7-0-9-4-9"
         d="m 22.803,74.715 c -3.4768,0.64378 -6.5778,3.2416 -7.5808,6.5957 -0.98265,3.4927 -0.13763,7.1446 0.85919,10.536 1.3464,4.4489 3.559,8.782 7.0876,11.95 3.2643,2.9603 7.6167,4.6842 12.049,4.886 4.2818,0.24389 8.6424,0.1906 12.807,-0.92384 3.604,-0.93853 7.0233,-2.6972 9.6507,-5.3199 2.4223,-2.3844 4.1834,-5.3842 5.1269,-8.6177 1.8756,-5.783 1.8265,-12.299 -0.82483,-17.846 -1.2219,-2.5321 -3.5656,-4.7627 -6.4991,-5.1066 -2.0561,-0.22367 -4.0889,0.3323 -6.084,0.74365 -2.5878,0.63647 -5.0043,1.8013 -7.233,3.2239 -1.6755,1.0111 -3.4622,2.0505 -5.4904,2.08 -1.9816,0.12404 -3.9237,-0.46097 -5.6944,-1.2863 -2.6003,-0.90591 -5.4276,-1.486 -8.174,-0.91479 z" />
      <path
         style="fill:#feca66;stroke:#000000;stroke-width:0.46094894px;stroke-linecap:butt;stroke-linejoin:miter"
         inkscape:connector-curvature="0"
         id="path8429-8-4-9-1-1"
         d="m 36.433,87.368 c 0.53663,1.4054 1.0238,2.8298 1.602,4.2194 0.27785,0.65777 0.5611,1.313 0.89099,1.9476 0.28547,0.61652 0.56042,1.2376 0.82945,1.8611 0.40563,-1.8481 0.92791,-3.6766 1.1478,-5.5591 0.11863,-0.95339 0.16496,-1.913 0.27732,-2.8665 0.11263,-0.60626 -0.65243,-0.40942 -1.0022,-0.28925 -1.2551,0.14287 -2.5084,0.31647 -3.7606,0.48713 0.006,0.0665 0.01,0.13317 0.0153,0.19966 z" />
      <g
         id="g9298-2-1-2-8-2"
         transform="matrix(0.38751824,-0.05598978,0.05707819,0.38012871,-102.83163,-388.63332)">
        <path
           style="fill:#000000"
           inkscape:connector-curvature="0"
           id="path8431-4-3-6-2-9-4"
           d="m 144.26,1258.5 c 0,0 -3.4559,-7.1257 -4.8206,-5.3926 -1.3646,1.7331 -1.2263,4.3905 -0.51621,4.6662 0.71012,0.2759 -2.0047,-3.7305 -3.0678,-2.8546 -1.0631,0.8758 -4.721,4.2574 -0.78762,6.9165 3.9334,2.6594 -2.1685,-1.6815 -2.1685,-1.6815 0,0 -0.90149,-0.9159 -2.0161,0.2543 -1.1145,1.1702 0.61138,3.4435 0.61138,3.4435 0,0 1.6559,1.8061 4.8308,0.996 3.1749,-0.8099 7.9346,-6.3478 7.9346,-6.3478 z" />
        <path
           inkscape:connector-curvature="0"
           id="path9241-3-2-3-8-7"
           style="color:#000000;fill:#ffffff;fill-rule:nonzero;stroke:#000000;stroke-width:1;stroke-miterlimit:4;stroke-dashoffset:0;enable-background:accumulate"
           d="m 143.77,1256.4 c -6.0253,1.6306 -11.587,5.9249 -13.714,11.924 -1.673,4.7082 -0.36413,10.284 3.2032,13.776 3.0407,3.284 7.4162,5.278 11.897,5.3506 5.6243,0.4432 11.148,-2.7489 14.039,-7.5097 2.1573,-3.4321 2.7908,-7.8136 1.4704,-11.672 -2.1191,-6.6808 -8.6903,-11.758 -15.725,-11.931 -0.39141,-0.013 -0.78023,0.039 -1.1703,0.062 z"
           stroke-miterlimit="4" />
        <path
           inkscape:connector-curvature="0"
           id="path9241-5-1-0-1-1-8"
           d="m 144.61,1264.7 c -2.8102,0.7606 -5.4042,2.7634 -6.3961,5.5612 -0.78025,2.1958 -0.16982,4.7964 1.494,6.4251 1.4181,1.5316 3.4588,2.4615 5.5485,2.4954 2.6231,0.2068 5.1994,-1.282 6.5476,-3.5025 1.0062,-1.6006 1.3016,-3.6441 0.68577,-5.4437 -0.98832,-3.1158 -4.0531,-5.4838 -7.3338,-5.5645 -0.18255,-0.01 -0.36389,0.019 -0.54583,0.029 z"
           style="color:#000000;fill:#000000;enable-background:accumulate" />
      </g>
      <g
         id="g9298-1-7-5-7-1-8"
         transform="matrix(-0.38751824,0.05598978,0.05707819,0.38012871,35.38791,-408.60368)">
        <path
           style="fill:#000000"
           inkscape:connector-curvature="0"
           id="path8431-4-2-0-8-5-4-0"
           d="m 144.26,1258.5 c 0,0 -3.4559,-7.1257 -4.8206,-5.3926 -1.3646,1.7331 -1.2263,4.3905 -0.51621,4.6662 0.71012,0.2759 -2.0047,-3.7305 -3.0678,-2.8546 -1.0631,0.8758 -4.721,4.2574 -0.78762,6.9165 3.9334,2.6594 -2.1685,-1.6815 -2.1685,-1.6815 0,0 -0.90149,-0.9159 -2.0161,0.2543 -1.1145,1.1702 0.61138,3.4435 0.61138,3.4435 0,0 1.6559,1.8061 4.8308,0.996 3.1749,-0.8099 7.9346,-6.3478 7.9346,-6.3478 z" />
        <path
           inkscape:connector-curvature="0"
           id="path9241-7-1-6-0-9-3"
           style="color:#000000;fill:#ffffff;fill-rule:nonzero;stroke:#000000;stroke-width:1;stroke-miterlimit:4;stroke-dashoffset:0;enable-background:accumulate"
           d="m 143.77,1256.4 c -6.0253,1.6306 -11.587,5.9249 -13.714,11.924 -1.673,4.7082 -0.36413,10.284 3.2032,13.776 3.0407,3.284 7.4162,5.278 11.897,5.3506 5.6243,0.4432 11.148,-2.7489 14.039,-7.5097 2.1573,-3.4321 2.7908,-7.8136 1.4704,-11.672 -2.1191,-6.6808 -8.6903,-11.758 -15.725,-11.931 -0.39141,-0.013 -0.78023,0.039 -1.1703,0.062 z"
           stroke-miterlimit="4" />
        <path
           inkscape:connector-curvature="0"
           id="path9241-5-2-7-0-3-1-3"
           d="m 144.61,1264.7 c -2.8102,0.7606 -5.4042,2.7634 -6.3961,5.5612 -0.78025,2.1958 -0.16982,4.7964 1.494,6.4251 1.4181,1.5316 3.4588,2.4615 5.5485,2.4954 2.6231,0.2068 5.1994,-1.282 6.5476,-3.5025 1.0062,-1.6006 1.3016,-3.6441 0.68577,-5.4437 -0.98832,-3.1158 -4.0531,-5.4838 -7.3338,-5.5645 -0.18255,-0.01 -0.36389,0.019 -0.54583,0.029 z"
           style="color:#000000;fill:#000000;enable-background:accumulate" />
      </g>
      <path
         inkscape:connector-curvature="0"
         id="path9332-04-5-4-4-4"
         style="color:#000000;fill:#feca66;fill-rule:nonzero;enable-background:accumulate"
         d="m 24.639,96.947 c -0.67205,0.22716 -1.2865,0.64367 -1.6941,1.2201 -0.30328,0.40455 -0.51994,0.88939 -0.52059,1.3984 -0.0272,0.77568 0.31366,1.5522 0.90736,2.0657 0.63636,0.56877 1.5353,0.87802 2.3935,0.73955 0.85183,-0.14479 1.5939,-0.72147 1.984,-1.4714 0.41157,-0.75995 0.45439,-1.7291 0.0248,-2.4908 -0.43418,-0.78074 -1.2458,-1.3575 -2.148,-1.4811 -0.31387,-0.048 -0.63567,-0.0441 -0.94692,0.0195 z" />
      <path
         inkscape:connector-curvature="0"
         id="path9332-0-2-9-7-9-7"
         style="color:#000000;fill:#feca66;fill-rule:nonzero;enable-background:accumulate"
         d="m 57.191,92.244 c -0.67203,0.22717 -1.2864,0.6437 -1.6941,1.2201 -0.30329,0.40454 -0.51993,0.88939 -0.52059,1.3984 -0.0272,0.77567 0.31365,1.5522 0.90735,2.0657 0.63636,0.56876 1.5353,0.87802 2.3934,0.73955 0.85184,-0.1448 1.5939,-0.72148 1.984,-1.4714 0.41159,-0.75995 0.45439,-1.7291 0.0248,-2.4908 -0.43419,-0.78075 -1.2458,-1.3575 -2.148,-1.4811 -0.31385,-0.048 -0.63567,-0.0441 -0.94692,0.0195 z" />
      <path
         inkscape:connector-curvature="0"
         id="path9381-2-6-7-4-4"
         style="color:#000000;fill:#ffffff;stroke:#000000;stroke-width:0.94544762;enable-background:accumulate"
         d="m 43.797,146.8 c -4.7478,0.87826 -9.4028,2.1646 -14.06,3.4112 -0.29689,0.15577 -0.91397,0.0901 -0.89984,0.53436 0.0125,0.3791 0.42202,0.52846 0.73529,0.61027 3.6034,1.4556 7.1535,3.1927 11.034,3.8164 4.1778,0.74836 8.5153,0.64849 12.648,-0.3125 3.611,-0.87603 7.0538,-2.4194 10.069,-4.5598 1.9166,-1.3458 3.6153,-2.9575 5.3655,-4.4992 -0.27052,-0.55198 -0.99846,-0.42832 -1.5103,-0.43732 -5.0721,-0.12704 -10.177,-0.37413 -15.22,0.31834 -2.6311,0.34559 -5.2568,0.73389 -7.8886,1.0728 -0.0907,0.0171 -0.18194,0.0301 -0.27291,0.0453 z" />
      <g
         id="text4581-4-9"
         style="font-size:37.81790543px;font-style:normal;font-weight:normal;line-height:80.00000119%;letter-spacing:0px;word-spacing:0px;fill:#feca66;stroke:#000000;stroke-width:0.94544762;font-family:Sans"
         font-weight="normal"
         transform="matrix(0.9988957,-0.1443234,0.14712899,0.97984789,0,0)"
         font-size="37.81790543px"
         font-style="normal"
         line-height="80.00000119%">
        <path
           inkscape:connector-curvature="0"
           id="path24239"
           style="text-align:center"
           d="m 16.09,130.89 -1.7207,-0.0567 c -0.35297,-0.0504 -0.68072,-0.16388 -0.98327,-0.34037 -0.6303,-0.4412 -1.0778,-1.103 -1.3425,-1.9854 -0.26472,-0.89502 -0.39709,-1.809 -0.39709,-2.7418 0,-0.16388 0.0063,-0.32775 0.01891,-0.49164 0.10085,-1.2732 0.23951,-2.1493 0.416,-2.6283 0.31515,-0.71853 0.93914,-1.2228 1.872,-1.5127 0.50424,-0.16387 0.98956,-0.2458 1.456,-0.24581 0.46642,10e-6 0.91393,0.0567 1.3425,0.17018 1.7144,0.28994 2.5716,1.5947 2.5716,3.9142 -8e-6,0.25212 -0.01261,0.51055 -0.03782,0.77527 -0.27734,0.0756 -0.88873,0.13236 -1.8342,0.17018 -0.93285,0.0378 -1.6451,0.0567 -2.1367,0.0567 -0.47903,1e-5 -0.8446,-0.0252 -1.0967,-0.0756 v 0.58618 l 0.01891,0.41599 c -3e-6,0.0883 -3e-6,0.15128 0,0.18909 0.0126,0.0252 0.02521,0.0756 0.03782,0.15127 0.0126,0.0756 0.02521,0.13237 0.03782,0.17018 0.2143,0.65552 0.57357,1.0652 1.0778,1.2291 0.11345,0.0252 0.25842,0.0378 0.43491,0.0378 0.18908,1e-5 0.40969,-0.11345 0.66181,-0.34036 0.25211,-0.2269 0.37817,-0.62399 0.37818,-1.1913 -5e-6,-0.0378 -5e-6,-0.0819 0,-0.13236 h 0.208 l 1.4749,-0.0378 c 0.36557,0 0.59878,0.0252 0.69963,0.0756 -0.12607,1.7774 -0.30255,2.7607 -0.52945,2.9498 -0.34037,0.46642 -0.84461,0.73745 -1.5127,0.81309 -0.416,0.0504 -0.78788,0.0756 -1.1156,0.0756 m -0.03782,-6.4669 1.0211,0.0378 c 0.06302,0 0.10714,-0.006 0.13236,-0.0189 0.0252,-0.0126 0.03781,-0.0504 0.03782,-0.11345 v -0.13237 c -6e-6,-0.56726 -0.24582,-0.97695 -0.73745,-1.2291 -0.2017,-0.12605 -0.49794,-0.18908 -0.88872,-0.18909 -0.79418,1e-5 -1.2417,0.4097 -1.3425,1.2291 -0.01261,0.0756 -0.01891,0.15758 -0.01891,0.24582 -3e-6,0.0756 0.02521,0.12607 0.07564,0.15127 0.06303,0.0126 0.35296,0.0189 0.86981,0.0189 0.52945,1e-5 0.81308,1e-5 0.8509,0" />
        <path
           inkscape:connector-curvature="0"
           id="path24241"
           style="text-align:center"
           d="m 21.07,127.61 1.5884,0.0378 c 0.0126,0.36558 0.2206,0.65551 0.624,0.86981 0.25212,0.12606 0.47272,0.18909 0.66181,0.18909 0.73114,0 1.0904,-0.31514 1.0778,-0.94545 0.0126,-0.0504 0.0189,-0.13866 0.01891,-0.26472 -6e-6,-0.13866 -0.08825,-0.28363 -0.26472,-0.43491 -0.16388,-0.16387 -0.37188,-0.27102 -0.624,-0.32145 -1.0337,-0.20169 -1.7333,-0.38448 -2.0989,-0.54836 -0.68072,-0.2269 -1.185,-0.59247 -1.5127,-1.0967 -0.32776,-0.50423 -0.49163,-1.0085 -0.49163,-1.5127 0,-0.56726 0.17648,-1.0967 0.52945,-1.5884 0.36557,-0.50423 0.80678,-0.82568 1.3236,-0.96435 0.52945,-0.15126 1.1913,-0.2269 1.9854,-0.22691 0.89502,1e-5 1.6829,0.082 2.3636,0.24582 1.0967,0.46643 1.6451,1.4812 1.6451,3.0443 -0.50425,0.0756 -0.98327,0.11346 -1.4371,0.11345 -0.44122,10e-6 -0.86351,-0.0378 -1.2669,-0.11345 0.0126,-0.063 0.0189,-0.12605 0.01891,-0.18909 -5e-6,-0.23951 -0.13237,-0.46011 -0.39709,-0.66181 -0.25212,-0.2143 -0.52946,-0.32145 -0.83199,-0.32146 -0.02522,1e-5 -0.05673,1e-5 -0.09455,0 -0.36558,0.063 -0.6177,0.22692 -0.75636,0.49164 -0.07564,0.12606 -0.11346,0.25843 -0.11345,0.39708 -3e-6,0.13868 0.03781,0.28364 0.11345,0.43491 0.13866,0.27734 0.39708,0.48534 0.77527,0.624 1.8026,0.26473 2.9183,0.67442 3.3469,1.2291 0.32775,0.54206 0.49162,1.0841 0.49163,1.6262 -8e-6,0.52945 -0.08195,1.0337 -0.24582,1.5127 -0.54206,1.1345 -1.6325,1.7018 -3.2712,1.7018 h -0.17018 -0.24582 c -1.1345,0 -2.08,-0.27733 -2.8363,-0.83199 -0.74375,-0.55467 -1.1156,-1.3362 -1.1156,-2.3447 v -0.0945 c 0.34036,-0.0378 0.74375,-0.0567 1.2102,-0.0567" />
        <path
           inkscape:connector-curvature="0"
           id="path24243"
           style="text-align:center"
           d="m 30.037,117.63 1.7396,0.0945 c 0.17648,10e-6 0.32145,-0.006 0.43491,-0.0189 v 2.5338 l 0.01891,1.0589 c 0.32775,-0.0126 1.2795,-0.063 2.8553,-0.15127 0.11345,0.12607 0.17017,0.37819 0.17018,0.75636 l -0.07564,1.3236 c -7e-6,0.11346 0.0063,0.208 0.01891,0.28363 h -2.9309 c -4e-6,1.79 0.0063,3.0632 0.01891,3.8196 0.2143,0.31515 0.57987,0.52315 1.0967,0.62399 0.51684,0.10085 0.91393,0.15128 1.1913,0.15128 0.27732,0 0.48532,-0.006 0.624,-0.0189 0.08823,0.61769 0.13236,1.1408 0.13236,1.5694 -7e-6,0.416 -0.04413,0.74375 -0.13236,0.98327 -0.28994,0.0126 -0.57358,0.0189 -0.8509,0.0189 -2.4077,0 -3.8511,-0.56096 -4.3302,-1.6829 -0.2017,-1.2228 -0.30254,-2.8111 -0.30254,-4.7651 -1e-6,-0.21429 -1e-6,-0.4349 0,-0.66181 -0.26473,0.0126 -0.71854,0.0189 -1.3614,0.0189 l 0.05673,-2.3069 c 0.34036,0.0126 0.78787,0.0189 1.3425,0.0189 l -0.03782,-2.1556 c -1e-6,-0.61768 0.01891,-1.1093 0.05673,-1.4749 0.07563,-0.0126 0.16388,-0.0189 0.26473,-0.0189" />
        <path
           inkscape:connector-curvature="0"
           id="path24245"
           style="text-align:center"
           d="m 36.101,130.62 c -0.03782,-0.2143 -0.05673,-0.54836 -0.05673,-1.0022 l 0.03782,-1.1913 c 0.23951,-0.10085 0.64921,-0.15127 1.2291,-0.15127 0.59248,0 0.97066,0.0378 1.1345,0.11345 l -0.03782,0.47272 c -0.05043,0.97066 -0.07564,1.5505 -0.07564,1.7396 v 0.0378 h -0.03782 l -2.1367,-0.0189 h -0.05673" />
        <path
           inkscape:connector-curvature="0"
           id="path24247"
           style="text-align:center"
           d="m 13.628,135.52 -0.208,8.5847 c -6e-6,0.59248 0.0063,1.0337 0.01891,1.3236 -6e-6,0.2269 -0.38449,0.34036 -1.1534,0.34036 -0.44121,0 -1.0589,-0.0441 -1.8531,-0.13236 v -1.8531 c -3e-6,-0.81939 0.03782,-2.0296 0.11345,-3.6305 0.07563,-1.601 0.11345,-2.6409 0.11345,-3.12 -4e-6,-0.47902 -0.0063,-0.76265 -0.01891,-0.8509 -0.08825,-0.0252 -0.18279,0.0882 -0.28364,0.34036 -0.17649,0.46643 -0.35297,0.69964 -0.52945,0.69963 -0.16388,1e-5 -0.58618,-0.0882 -1.2669,-0.26472 -0.68072,-0.18908 -1.0211,-0.33405 -1.0211,-0.43491 0.037818,-0.36556 0.39078,-1.1219 1.0589,-2.2691 0.66811,-1.1471 1.0778,-1.7963 1.2291,-1.9476 0.78157,-0.0252 1.4434,-0.0378 1.9854,-0.0378 0.54205,1e-5 1.1156,0.0252 1.7207,0.0756 0.06302,0.89504 0.09454,1.9539 0.09455,3.1767" />
        <path
           inkscape:connector-curvature="0"
           id="path24249"
           style="text-align:center"
           d="m 14.975,141.57 1.9854,-0.0945 c 0.2143,0 0.54205,0.0189 0.98326,0.0567 0.07563,0.26473 0.2143,0.47903 0.416,0.64291 0.2143,0.16388 0.4412,0.24582 0.68072,0.24581 0.02521,1e-5 0.05672,1e-5 0.09455,0 0.68072,-0.0756 1.0211,-0.70593 1.0211,-1.8909 -6e-6,-0.13866 -0.0063,-0.28363 -0.01891,-0.43491 l -0.01891,-0.0189 c -0.46643,0.1891 -0.91394,0.28364 -1.3425,0.28364 -0.42861,0 -0.8383,-0.0693 -1.2291,-0.208 -0.86981,-0.28993 -1.5442,-0.80047 -2.0233,-1.5316 -0.39079,-0.57986 -0.58618,-1.3992 -0.58618,-2.4582 -10e-7,-0.69332 0.10085,-1.2606 0.30254,-1.7018 0.17648,-0.31513 0.31515,-0.52943 0.416,-0.6429 0.76896,-0.90762 1.9665,-1.393 3.5927,-1.456 1.2858,1e-5 2.1304,0.0946 2.5338,0.28363 0.93283,0.40341 1.4497,1.3741 1.5505,2.912 0.0126,0.32777 0.0252,0.76267 0.03782,1.3047 l 0.03782,2.7985 c 0.0252,0.88242 0.03781,1.5001 0.03782,1.8531 -9e-6,1.2228 -0.32146,2.2817 -0.96436,3.1767 -0.64291,0.78157 -1.6577,1.1724 -3.0443,1.1724 -0.66812,0 -1.3299,-0.11975 -1.9854,-0.35927 -1.6892,-0.57987 -2.5338,-1.6388 -2.5338,-3.1767 -10e-7,-0.2143 0.01891,-0.4349 0.05673,-0.66181 v -0.0945 m 3.3658,-4.6138 c 0.18908,0.4034 0.51684,0.60509 0.98327,0.60508 0.47902,10e-6 0.80678,-0.14496 0.98326,-0.4349 l 0.11345,-0.22691 c 0.02521,-0.0504 0.03781,-0.0882 0.03782,-0.11345 -6e-6,-0.0378 0.0063,-0.0756 0.01891,-0.11346 0.02521,-0.0504 0.03781,-0.16387 0.03782,-0.34036 -6e-6,-0.34035 -0.18279,-0.60508 -0.54836,-0.79418 -0.2017,-0.10083 -0.4034,-0.15126 -0.60509,-0.15127 l -0.56727,0.13237 c -0.39079,0.16388 -0.58618,0.4034 -0.58618,0.71854 0.02521,0.28994 0.06933,0.52315 0.13236,0.69963 v 0.0189" />
        <path
           inkscape:connector-curvature="0"
           id="path24251"
           style="text-align:center"
           d="m 25.765,139.11 c -0.69333,-0.71854 -1.04,-1.6073 -1.04,-2.6662 -1e-6,-1.0589 0.28363,-1.9854 0.8509,-2.7796 0.56727,-0.80677 1.3425,-1.2354 2.3258,-1.2858 0.4286,-0.0126 0.83199,-0.0189 1.2102,-0.0189 0.39078,1e-5 0.76266,0.0189 1.1156,0.0567 0.46641,0.0504 0.90132,0.22062 1.3047,0.51054 0.06302,0.0504 0.11345,0.0882 0.15127,0.11345 0.03781,0.0252 0.08823,0.0693 0.15127,0.13237 l 0.15127,0.15127 c 0.05042,0.0504 0.10714,0.12607 0.17018,0.2269 l 0.208,0.30255 c 0.20169,0.34037 0.33405,0.75006 0.39709,1.2291 0.07563,0.47904 0.11344,0.74376 0.11345,0.79418 v 0.52945 c -8e-6,0.23952 -0.02522,0.43491 -0.07563,0.58617 -0.21431,0.90764 -0.67443,1.6514 -1.3804,2.2313 v 0.0189 c 0.59247,0.44121 0.99586,1.0148 1.2102,1.7207 0.13866,0.41601 0.20799,0.80049 0.208,1.1534 -8e-6,1.0967 -0.34667,2.0296 -1.04,2.7985 -0.416,0.49163 -1.0589,0.81938 -1.9287,0.98326 -0.36558,0.0756 -0.76267,0.11345 -1.1913,0.11345 -0.42861,0 -0.88872,-0.0693 -1.3804,-0.20799 -0.8446,-0.21431 -1.4623,-0.58618 -1.8531,-1.1156 -0.57988,-0.69333 -0.86981,-1.601 -0.86981,-2.7229 0,-1.1345 0.39709,-2.0863 1.1913,-2.8552 m 3.8007,-2.2124 c 0.03781,-0.12605 0.05672,-0.27732 0.05673,-0.45382 -6e-6,-0.18908 -0.08195,-0.35926 -0.24582,-0.51054 -0.16388,-0.15126 -0.37818,-0.22689 -0.6429,-0.2269 -0.25212,10e-6 -0.43491,0.0504 -0.54836,0.15127 -0.11346,0.0883 -0.208,0.15758 -0.28363,0.208 -0.06303,0.0504 -0.09455,0.0945 -0.09455,0.13236 v 0.0378 c -0.01261,0.063 -0.01891,0.17019 -0.01891,0.32145 -4e-6,0.13867 0.06933,0.32776 0.208,0.56727 0.15127,0.25212 0.41599,0.37818 0.79418,0.37818 0.37817,0 0.6366,-0.20169 0.77527,-0.60509 m -0.07564,5.4269 c 0.05042,-0.0252 0.11975,-0.11975 0.208,-0.28364 0.08824,-0.16387 0.13236,-0.29623 0.13236,-0.39708 -6e-6,-0.34036 -0.12606,-0.61139 -0.37818,-0.81309 -0.23952,-0.21429 -0.51685,-0.32145 -0.83199,-0.32145 -0.08825,0 -0.18279,0.0126 -0.28363,0.0378 -0.46642,0.17649 -0.69964,0.54836 -0.69963,1.1156 -3e-6,0.34036 0.16387,0.58618 0.49163,0.73744 0.16387,0.063 0.34036,0.0945 0.52945,0.0945 0.18908,0 0.35926,-0.0126 0.51054,-0.0378 0.16387,-0.0378 0.27102,-0.0819 0.32145,-0.13236" />
        <path
           inkscape:connector-curvature="0"
           id="path24253"
           style="text-align:center"
           d="m 38.098,143.08 3.8196,-0.0567 c 0.08823,0.23952 0.13235,0.56097 0.13236,0.96436 -9e-6,0.40339 -9e-6,0.76266 0,1.0778 -9e-6,0.31515 0.0126,0.51684 0.03782,0.60508 -9e-6,0.0126 -0.02522,0.0189 -0.07564,0.0189 l -7.1854,0.0946 h -0.8509 c -0.01261,-0.0126 -0.01261,-0.10085 0,-0.26473 0.01261,-0.16388 0.01891,-0.61139 0.01891,-1.3425 0.01261,-0.74375 0.05673,-1.3488 0.13236,-1.8153 0.08824,-0.47903 0.25212,-0.92023 0.49163,-1.3236 0.46642,-0.51684 1.1787,-1.0652 2.1367,-1.6451 0.97066,-0.59247 1.601,-1.0085 1.8909,-1.248 0.45381,-0.30254 0.68072,-0.75635 0.68072,-1.3614 -6e-6,-0.26472 -0.05673,-0.51054 -0.17018,-0.73745 -0.17649,-0.35296 -0.45382,-0.55466 -0.83199,-0.60509 -0.65551,1e-5 -1.0652,0.36558 -1.2291,1.0967 -0.08825,0.35298 -0.14497,0.75006 -0.17018,1.1913 v 0.0378 H 36.9067 c -0.76897,0.0882 -1.3678,0.13237 -1.7964,0.13236 -0.4286,1e-5 -0.76266,-0.0126 -1.0022,-0.0378 h -0.01891 v -0.0378 c -0.07564,-0.45381 -0.11345,-0.88871 -0.11345,-1.3047 0,-1.2354 0.35297,-2.2565 1.0589,-3.0632 0.31515,-0.40338 0.79417,-0.69332 1.4371,-0.86981 0.65551,-0.17647 1.2795,-0.26471 1.872,-0.26473 h 0.34036 c 0.70593,0.0378 1.2921,0.15129 1.7585,0.34036 1.0841,0.55468 1.7018,1.6073 1.8531,3.1578 0.0252,0.69334 0.03781,1.1346 0.03782,1.3236 -9e-6,0.832 -0.21431,1.4938 -0.6429,1.9854 -0.42861,0.47903 -0.88242,0.82569 -1.3614,1.04 -1.4749,0.65551 -2.433,1.2543 -2.8742,1.7964 -0.17649,0.46642 -0.26473,0.76266 -0.26472,0.88872 -4e-6,0.12606 0.0189,0.19539 0.05673,0.208 0.17648,0.0126 0.46011,0.0189 0.8509,0.0189" />
      </g>
    </g>
    <path
       style="color:#000000;fill:#ffffff;fill-opacity:1;fill-rule:nonzero;stroke:none;stroke-width:2;marker:none;visibility:visible;display:inline;overflow:visible;enable-background:accumulate"
       d="m 0,308 0,22.71875 c 0.15018967,-4.54729 1.8861313,-9.13747 5.59375,-11.6875 2.7292612,-1.0712 5.674126,-1.4844 8.53125,-2.125 14.26337,-2.9309 28.857221,-2.8801 43.3125,-3.75 24.999436,-1.4124 49.9542,-3.4358 74.9375,-5.125 0.44371,-0.0213 0.89621,-0.0316 1.34375,-0.0312 L 0,308 z m 133.71875,0 c 6.7131,0.005 13.74339,2.47844 17.75,8.40625 3.75984,5.85218 4.50433,13.03682 4.53125,19.96875 L 156,308 133.71875,308 z M 156,336.375 c 0.004,0.99028 -0.0128,1.96141 -0.0312,2.9375 0.0237,4.4968 0.10429,9.77845 -3.375,13.03125 -4.63819,2.8719 -10.04919,4.05185 -15.21875,5.46875 -17.56897,4.8858 -35.88423,4.0911 -53.875,5.125 C 76.329442,363.60209 69.152809,363.91796 61.9688,364 L 156,364 156,336.375 z M 0,331.75 0,364 57.65625,364 C 43.285505,363.991 28.91225,363.17663 14.5625,362.53125 10.69028,362.90095 6.1231201,361.6934 4.125,357.875 1.4731113,350.185 0.68370293,341.95945 0.15625,333.84375 0.07165779,333.16523 0.01356838,332.4464 0,331.75 z"
       id="rect6828"
       inkscape:connector-curvature="0"
       transform="translate(-0.00422936,852.36218)" />
    <path
       style="color:#000000;fill:#ff6600;fill-opacity:1;fill-rule:nonzero;stroke:none;stroke-width:2;marker:none;visibility:visible;display:inline;overflow:visible;enable-background:accumulate"
       id="path11998"
       d="m 0.780353,1217.4703 c 3.0525502,-0.3129 6.1196991,-0.3512 9.1792774,-0.4899 5.8096796,-0.3657 11.6265256,-0.4155 17.4328496,0.055 0.867346,0.1118 1.318956,0.1184 2.096514,0.3476 0.11632,0.035 0.214066,0.1887 0.332742,0.1799 0.416986,-0.031 0.829514,-0.1382 1.245794,-0.1842 2.555812,-0.1755 5.116036,-0.1953 7.674082,-0.1338 1.605402,0.053 3.210336,0.1206 4.815308,0.1952 1.294352,0.044 2.587286,-0.055 3.881134,-0.092 2.234632,-0.158 4.470684,-0.059 6.706042,-0.024 3.007078,-0.04 6.010927,-0.2264 9.018155,-0.2584 3.083792,0.022 6.182862,-0.1272 9.255868,0.313 0.560538,0.2517 1.069452,0.1229 1.649908,0.064 2.746342,-0.3006 5.502182,-0.3218 8.254702,-0.2473 1.48656,0 2.965254,0.2595 4.450892,0.2628 1.582088,-0.022 3.162304,-0.1338 4.744022,-0.1798 1.98942,-0.037 3.978394,0.044 5.967228,0.097 1.767874,0.028 3.535689,-0.044 5.303679,-0.075 2.17538,-0.035 4.35044,0 6.52575,0.022 2.02691,0.048 4.05405,0 6.08102,-0.029 2.49828,-0.092 4.99767,-0.044 7.49619,-9e-4 2.09598,0.09 4.19196,0.04 6.2877,-0.031 2.85127,0 5.70174,-0.059 8.5527,-0.1053 3.58309,-0.1338 7.16647,-0.053 10.74953,0.022 2.36377,0.099 4.72742,0.1535 7.09217,0.1053 3.33286,-0.136 6.6656,-0.2084 9.99955,-0.1382 2.04905,0.064 4.09674,0.1864 6.14536,0.2696 1.94271,-0.068 3.8857,-0.1163 5.82939,-0.1163 1.897,-0.094 3.79254,0.033 5.68748,0.1338 1.09537,-0.094 2.19948,0.022 3.29397,-0.092 0.0438,0 0.0763,-0.068 0.11962,-0.077 0.37136,-0.077 0.74588,-0.1163 1.11882,-0.1755 2.78676,-0.5539 5.59674,-0.5526 8.40336,-0.5008 2.45098,0.2402 4.90862,0.1163 7.36266,0.068 2.47242,-0.033 4.94496,0.035 7.41722,0.075 2.72048,0.022 5.43982,-0.042 8.1599,-0.099 3.3716,-0.1251 6.74408,-0.1009 10.1163,-0.092 4.06956,0 8.139,-0.031 12.20854,-0.026 3.302,-0.026 6.60362,0.064 9.9046,0.1667 2.25166,0.04 4.50434,0.022 6.75616,-0.022 3.27552,-0.022 6.5508,-0.053 9.8263,-0.066 2.18232,-0.026 4.36138,0.125 6.5423,0.1755 2.05904,0.092 4.11772,0 6.17686,-0.042 3.03222,-0.1338 6.06694,-0.1755 9.1003,-0.1119 2.43236,0.1163 4.86588,0.048 7.29882,0.022 3.57368,-0.051 7.14596,-0.079 10.71972,-0.042 2.31256,0.022 4.624,0.099 6.9361,0.1492 2.6885,0.022 5.37676,-0.068 8.06518,-0.1032 2.75154,-0.029 5.50294,0 8.25402,0.066 1.65864,0.182 3.3272,0.074 4.98762,0 4.73514,-0.2799 9.47506,-0.3752 14.21402,-0.317 3.21678,0.022 6.43098,0.2472 9.64724,0.2731 2.6309,0.055 5.26518,-0.022 7.89456,0.136 1.49358,0 3.01184,0.1316 4.5017,-0.064 1.5842,-0.022 3.1676,0.079 4.75032,0.1645 1.884,0.044 3.765,-0.125 5.64688,-0.2224 2.64166,-0.086 5.28428,-0.022 7.92646,-0.022 2.43842,0.079 4.8751,0.1404 7.31416,0.099 1.50456,0 3.00852,-0.061 4.51318,-0.022 0.98666,0.026 1.1737,-0.2863 0.92146,0.096 0.92682,0.1426 1.85508,0.094 2.78378,0.044 1.73044,-0.066 3.4632,-0.068 5.19406,-0.022 1.40714,0.035 2.6225,-0.086 4.18478,-0.1295 2.3313,-0.07 4.66368,0.022 6.99376,0.1207 1.00038,0.077 2.00264,0.072 3.00394,0.044 1.19384,0 2.38756,0 3.5813,-0.037 1.21328,-0.037 2.42598,0.042 3.63888,0.046 1.2001,0 2.39966,-0.022 3.59964,-0.055 1.45116,-0.022 2.90216,0 4.35328,4e-4 1.2101,0.042 2.4203,0.039 3.63062,0.026 0.9509,0 1.90122,0.044 2.85182,0.068 0.93648,-0.044 1.87354,-0.022 2.81016,-0.04 0.2088,0.075 -0.54954,4.2137 -0.7584,4.1387 l 0,0 c -0.93164,-0.024 -1.86374,0 -2.79524,-0.04 -0.95882,0.022 -1.91734,0.07 -2.87642,0.068 -1.2134,-0.022 -2.42672,-0.022 -3.63988,0.026 -1.45118,0 -2.90222,0.022 -4.35342,2e-4 -1.1932,-0.033 -2.38602,-0.046 -3.57938,-0.055 -1.2185,0 -2.43682,0.083 -3.6557,0.046 -1.18918,-0.029 -2.3783,-0.033 -3.56756,-0.037 -1.00658,-0.031 -2.01406,-0.033 -3.01974,0.044 -1.78124,0.079 -3.5945,0.2497 -5.39762,0.1207 -1.92576,-0.055 -3.85056,-0.1887 -5.77754,-0.1294 -1.2383,0.033 -2.47622,0.061 -3.65582,-0.022 -0.92342,-0.05 -1.84668,-0.1031 -2.76802,0.044 -2.34178,0.083 -4.68232,0.1536 -7.02492,0.075 -1.88736,-0.033 -3.77274,0.055 -5.66008,0.099 -3.20296,0 -6.40664,0.075 -9.60908,-0.022 -1.28308,-0.068 -3.5153,-0.229 -4.0533,-0.2222 -1.56258,0.086 -3.12588,0.1776 -4.69004,0.1645 -2.03626,-0.042 -4.07546,-0.1294 -6.11124,-0.064 -2.08498,0.1206 -4.17094,0.1338 -6.2582,0.136 -3.8115,0.031 -7.62228,0.204 -11.4336,0.2729 -4.14918,0.05 -8.3006,0.031 -12.44376,-0.317 -2.21376,-0.1119 -4.4231,-0.1229 -6.63784,0 -2.75914,0.07 -5.51862,0.094 -8.27822,0.066 -2.13588,-0.029 -4.27128,-0.1514 -6.40786,-0.1031 -2.87008,0.061 -5.74022,0.1031 -8.61054,0.1492 -3.0025,0.031 -6.00372,0.028 -9.00576,-0.042 -3.00152,-0.042 -6.0015,-0.068 -9.00284,0.022 -3.01966,0.064 -6.04072,0.022 -9.0592,-0.1119 -1.52138,-0.026 -3.04182,-0.1491 -4.565,-0.042 -2.73424,0.064 -5.46836,0.1557 -8.20308,0.1754 -2.7086,0 -5.41686,-0.046 -8.12542,-0.066 -2.80942,-0.037 -5.61912,-0.042 -8.4286,0 -3.32126,0.1031 -6.64322,0.1931 -9.96548,0.1646 -3.47522,0.022 -6.9506,-0.048 -10.4259,-0.022 -3.95362,0.022 -7.90802,0.053 -11.86072,-0.1009 -2.15828,-0.057 -4.3159,-0.1535 -6.47472,-0.1119 -3.0398,0.099 -6.07934,0.2666 -9.12064,0.1909 -2.44568,-0.079 -4.88597,-0.3084 -7.33193,-0.3381 -2.16744,0 -4.33094,0.2227 -6.49128,0.4475 -2.12202,0.2264 -4.24098,0.2905 -6.36742,0.1558 -1.91117,0.099 -3.82297,0.2255 -5.73614,0.1338 -1.9294,0 -3.85809,-0.048 -5.78648,-0.1163 -2.08155,0.083 -4.16221,0.2062 -6.24418,0.2696 -3.31717,0.07 -6.63313,0 -9.94918,-0.1382 -2.37772,-0.048 -4.75432,0 -7.13107,0.1053 -3.58559,0.072 -7.17152,0.1536 -10.75713,0.022 -2.83815,-0.046 -5.67581,-0.1163 -8.51428,-0.1053 -2.09194,-0.07 -4.18409,-0.1207 -6.27629,-0.031 -2.4984,0.042 -4.99769,0.092 -7.49585,-9e-4 -2.02361,-0.031 -4.04739,-0.077 -6.07095,-0.028 -2.17655,0.022 -4.35285,0.044 -6.52948,0 -1.7588,-0.031 -3.517393,-0.1031 -5.276081,-0.075 -2.000758,0.053 -4.001656,0.136 -6.002992,0.099 -1.55979,-0.046 -3.118034,-0.1601 -4.678206,-0.1799 -1.517644,0 -3.028672,0.2626 -4.54719,0.2628 -2.722264,0.072 -5.44832,0.059 -8.164142,-0.2472 -0.589084,-0.061 -1.099974,-0.1799 -1.673404,0.064 -3.112524,0.4243 -6.247896,0.3016 -9.370592,0.313 -2.975684,-0.031 -5.947901,-0.2193 -8.923431,-0.2584 -2.23248,0.035 -4.465714,0.136 -6.697434,-0.024 -1.282596,-0.037 -2.56423,-0.1382 -3.847346,-0.092 -1.628828,0.075 -3.25762,0.1404 -4.886862,0.1952 -2.541656,0.061 -5.085602,0.044 -7.624952,-0.1338 -0.393886,-0.046 -0.783696,-0.1536 -1.178318,-0.1843 -0.13934,-0.022 -0.261432,0.1426 -0.398536,0.1799 -0.84961,0.2255 -1.268606,0.231 -2.223956,0.3477 -5.813238,0.4569 -11.636521,0.4321 -17.4527749,0.055 -2.9996598,-0.1382 -6.0075239,-0.1733 -8.99974752,-0.4898 -0.20627156,-0.075 0.54271793,-4.1615 0.74898952,-4.0872 z"
       inkscape:connector-curvature="0" />
    <path
       style="color:#000000;fill:#008033;fill-opacity:1;fill-rule:nonzero;stroke:none;stroke-width:2;marker:none;visibility:visible;display:inline;overflow:visible;enable-background:accumulate"
       id="path11998-24"
       d="m 0.78040494,1267.4703 c 3.05252016,-0.3129 6.11968016,-0.3512 9.17924026,-0.4899 5.8096798,-0.3657 11.6265408,-0.4155 17.4328808,0.055 0.86732,0.1118 1.31894,0.1184 2.0965,0.3476 0.1164,0.035 0.21398,0.1887 0.33274,0.1799 0.41698,-0.031 0.82952,-0.1382 1.24578,-0.1842 2.55582,-0.1755 5.11606,-0.1953 7.67408,-0.1338 1.60542,0.053 3.21034,0.1206 4.81532,0.1952 1.29436,0.044 2.5873,-0.055 3.881141,-0.092 2.23462,-0.158 4.47068,-0.059 6.70604,-0.024 3.00708,-0.04 6.01094,-0.2264 9.01814,-0.2584 3.08382,0.022 6.18288,-0.1272 9.25588,0.313 0.56054,0.2517 1.06944,0.1229 1.6499,0.064 2.74636,-0.3006 5.5022,-0.3218 8.25472,-0.2473 1.48654,0 2.96524,0.2595 4.45088,0.2628 1.582081,-0.022 3.162301,-0.1338 4.744021,-0.1798 1.98942,-0.037 3.9784,0.044 5.96724,0.097 1.76786,0.028 3.535662,-0.044 5.303682,-0.075 2.17538,-0.035 4.35044,0 6.52574,0.022 2.0269,0.048 4.05404,0 6.08102,-0.029 2.49828,-0.092 4.99768,-0.044 7.4962,-9e-4 2.09596,0.09 4.19194,0.04 6.28768,-0.031 2.85128,0 5.70176,-0.059 8.5527,-0.1053 3.5831,-0.1338 7.16648,-0.053 10.74954,0.022 2.36378,0.099 4.72742,0.1535 7.09218,0.1053 3.33286,-0.136 6.66558,-0.2084 9.99954,-0.1382 2.04904,0.064 4.09672,0.1864 6.14536,0.2696 1.94272,-0.068 3.8857,-0.1163 5.82938,-0.1163 1.897,-0.094 3.79256,0.033 5.68748,0.1338 1.09538,-0.094 2.19948,0.022 3.29398,-0.092 0.0438,0 0.0762,-0.068 0.1196,-0.077 0.37134,-0.077 0.74588,-0.1163 1.11882,-0.1755 2.78676,-0.5539 5.59674,-0.5526 8.40334,-0.5008 2.451,0.2402 4.90864,0.1163 7.36268,0.068 2.47244,-0.033 4.94496,0.035 7.4172,0.075 2.72048,0.022 5.43982,-0.042 8.1599,-0.099 3.3716,-0.1251 6.74408,-0.1009 10.11632,-0.092 4.06957,0 8.13901,-0.031 12.20853,-0.026 3.30202,-0.026 6.60364,0.064 9.90462,0.1667 2.25166,0.04 4.50434,0.022 6.75616,-0.022 3.2755,-0.022 6.55078,-0.053 9.82628,-0.066 2.18232,-0.026 4.36138,0.125 6.54232,0.1755 2.05904,0.092 4.11772,0 6.17684,-0.042 3.03222,-0.1338 6.06696,-0.1755 9.10032,-0.1119 2.43236,0.1163 4.86586,0.048 7.29882,0.022 3.57366,-0.051 7.14594,-0.079 10.71972,-0.042 2.31254,0.022 4.62398,0.099 6.93608,0.1492 2.68852,0.022 5.37676,-0.068 8.06518,-0.1032 2.75154,-0.029 5.50294,0 8.25404,0.066 1.65862,0.182 3.32718,0.074 4.98762,0 4.73512,-0.2799 9.47504,-0.3752 14.214,-0.317 3.21678,0.022 6.43098,0.2472 9.64724,0.2731 2.6309,0.055 5.26518,-0.022 7.89456,0.136 1.4936,0 3.01184,0.1316 4.5017,-0.064 1.5842,-0.022 3.1676,0.079 4.75032,0.1645 1.88402,0.044 3.76502,-0.125 5.6469,-0.2224 2.64164,-0.086 5.28428,-0.022 7.92644,-0.022 2.43842,0.079 4.8751,0.1404 7.31418,0.099 1.50454,0 3.00852,-0.061 4.51316,-0.022 0.98666,0.026 1.1737,-0.2863 0.92146,0.096 0.92682,0.1426 1.85508,0.094 2.7838,0.044 1.73042,-0.066 3.4632,-0.068 5.19404,-0.022 1.40714,0.035 2.6225,-0.086 4.18478,-0.1295 2.3313,-0.07 4.66368,0.022 6.99376,0.1207 1.00038,0.077 2.00264,0.072 3.00394,0.044 1.19384,0 2.38756,0 3.5813,-0.037 1.21328,-0.037 2.42598,0.042 3.63888,0.046 1.2001,0 2.39966,-0.022 3.59964,-0.055 1.45116,-0.022 2.90216,0 4.35328,4e-4 1.2101,0.042 2.4203,0.039 3.63062,0.026 0.9509,0 1.90122,0.044 2.85182,0.068 0.93648,-0.044 1.87354,-0.022 2.81016,-0.04 0.2088,0.075 -0.54954,4.2137 -0.7584,4.1387 l 0,0 c -0.93164,-0.024 -1.86374,0 -2.79524,-0.04 -0.95882,0.022 -1.91734,0.07 -2.87642,0.068 -1.2134,-0.022 -2.42672,-0.022 -3.63988,0.026 -1.45118,0 -2.90222,0.022 -4.35342,2e-4 -1.1932,-0.033 -2.38602,-0.046 -3.57938,-0.055 -1.2185,0 -2.43682,0.083 -3.6557,0.046 -1.18918,-0.029 -2.3783,-0.033 -3.56756,-0.037 -1.00658,-0.031 -2.01406,-0.033 -3.01974,0.044 -1.78124,0.079 -3.5945,0.2497 -5.39762,0.1207 -1.92576,-0.055 -3.85056,-0.1887 -5.77752,-0.1294 -1.23832,0.033 -2.47624,0.061 -3.65584,-0.022 -0.92342,-0.05 -1.84668,-0.1031 -2.768,0.044 -2.34178,0.083 -4.68232,0.1536 -7.02494,0.075 -1.88736,-0.033 -3.77272,0.055 -5.66008,0.099 -3.20296,0 -6.40664,0.075 -9.60906,-0.022 -1.2831,-0.068 -3.51532,-0.229 -4.05332,-0.2222 -1.56258,0.086 -3.12588,0.1776 -4.69004,0.1645 -2.03626,-0.042 -4.07546,-0.1294 -6.11124,-0.064 -2.08498,0.1206 -4.17094,0.1338 -6.2582,0.136 -3.8115,0.031 -7.62228,0.204 -11.4336,0.2729 -4.14918,0.05 -8.3006,0.031 -12.44376,-0.317 -2.21374,-0.1119 -4.42308,-0.1229 -6.63784,0 -2.75914,0.07 -5.51862,0.094 -8.27822,0.066 -2.13588,-0.029 -4.27128,-0.1514 -6.40786,-0.1031 -2.87008,0.061 -5.74022,0.1031 -8.61052,0.1492 -3.00252,0.031 -6.00372,0.028 -9.00576,-0.042 -3.00152,-0.042 -6.00152,-0.068 -9.00286,0.022 -3.01966,0.064 -6.0407,0.022 -9.0592,-0.1119 -1.52138,-0.026 -3.04182,-0.1491 -4.565,-0.042 -2.73422,0.064 -5.46836,0.1557 -8.20308,0.1754 -2.70858,0 -5.41684,-0.046 -8.12542,-0.066 -2.80942,-0.037 -5.6191,-0.042 -8.42858,0 -3.32128,0.1031 -6.64322,0.1931 -9.96548,0.1646 -3.47524,0.022 -6.95062,-0.048 -10.42593,-0.022 -3.9536,0.022 -7.908,0.053 -11.86072,-0.1009 -2.15826,-0.057 -4.3159,-0.1535 -6.4747,-0.1119 -3.03982,0.099 -6.07934,0.2666 -9.12064,0.1909 -2.4457,-0.079 -4.88598,-0.3084 -7.33192,-0.3381 -2.16746,0 -4.33096,0.2227 -6.4913,0.4475 -2.12202,0.2264 -4.24098,0.2905 -6.36742,0.1558 -1.91116,0.099 -3.82296,0.2255 -5.73614,0.1338 -1.9294,0 -3.85808,-0.048 -5.78648,-0.1163 -2.08154,0.083 -4.16222,0.2062 -6.24418,0.2696 -3.31716,0.07 -6.63314,0 -9.94918,-0.1382 -2.37772,-0.048 -4.75432,0 -7.13106,0.1053 -3.5856,0.072 -7.17152,0.1536 -10.75712,0.022 -2.83818,-0.046 -5.67582,-0.1163 -8.5143,-0.1053 -2.09194,-0.07 -4.1841,-0.1207 -6.27628,-0.031 -2.4984,0.042 -4.9977,0.092 -7.49586,-9e-4 -2.0236,-0.031 -4.04738,-0.077 -6.07094,-0.028 -2.17656,0.022 -4.35284,0.044 -6.52948,0 -1.7588,-0.031 -3.517402,-0.1031 -5.276082,-0.075 -2.00076,0.053 -4.00166,0.136 -6.00298,0.099 -1.5598,-0.046 -3.118041,-0.1601 -4.678201,-0.1799 -1.51766,0 -3.02868,0.2626 -4.54722,0.2628 -2.72224,0.072 -5.4483,0.059 -8.16414,-0.2472 -0.58908,-0.061 -1.09996,-0.1799 -1.6734,0.064 -3.1125,0.4243 -6.24788,0.3016 -9.37058,0.313 -2.97568,-0.031 -5.9479,-0.2193 -8.92344,-0.2584 -2.23248,0.035 -4.46572,0.136 -6.697421,-0.024 -1.28262,-0.037 -2.56424,-0.1382 -3.84736,-0.092 -1.62882,0.075 -3.25762,0.1404 -4.88684,0.1952 -2.54168,0.061 -5.08562,0.044 -7.62496,-0.1338 -0.39388,-0.046 -0.7837,-0.1536 -1.17832,-0.1843 -0.1392,-0.022 -0.26144,0.1426 -0.39856,0.1799 -0.8496,0.2255 -1.26858,0.231 -2.22394,0.3477 -5.81324,0.4569 -11.636521,0.4321 -17.4527808,0.055 -2.9996401,-0.1382 -6.0075202,-0.1733 -8.99974028,-0.4898 -0.20632001,-0.075 0.54272001,-4.1615 0.74900002,-4.0872 z"
       inkscape:connector-curvature="0" />
    <path
       style="color:#000000;fill:#008033;fill-opacity:1;fill-rule:nonzero;stroke:none;stroke-width:6;marker:none;visibility:visible;display:inline;overflow:visible;enable-background:accumulate"
       d="m 425.38067,852.40205 c -24.98329,1.6891 -49.94733,3.7121 -74.94676,5.1245 -14.45529,0.8699 -29.03869,0.7962 -43.30205,3.7271 -2.85712,0.6405 -5.82211,1.054 -8.55137,2.1253 -4.56322,3.1385 -6.10964,9.3837 -5.43291,14.812 0.52746,8.1157 1.3276,16.3571 3.9795,24.047 1.99811,3.8184 6.5517,5.0221 10.42392,4.6524 22.9596,1.0326 46.00224,2.5263 68.94818,0.3995 17.99078,-1.0339 36.31073,-0.2174 53.87969,-5.1032 5.16956,-1.4168 10.55989,-2.5945 15.19809,-5.4664 3.47929,-3.2527 3.41651,-8.5418 3.39279,-13.0386 0.14742,-7.8087 -0.20226,-16.2162 -4.49921,-22.9045 -4.27373,-6.3229 -11.99055,-8.7161 -19.08987,-8.3751 z"
       id="rect6282-6-3-0-1-6-6"
       inkscape:connector-curvature="0" />
    <path
       style="color:#000000;fill:#006628;fill-opacity:1;fill-rule:nonzero;stroke:none;stroke-width:6;marker:none;visibility:visible;display:inline;overflow:visible;enable-background:accumulate"
       d="m 425.38067,908.40205 c -24.98329,1.6891 -49.94733,3.7121 -74.94676,5.1245 -14.45529,0.8699 -29.03869,0.7962 -43.30205,3.7271 -2.85712,0.6405 -5.82211,1.054 -8.55137,2.1253 -4.56322,3.1385 -6.10964,9.3837 -5.43291,14.812 0.52746,8.1157 1.3276,16.3571 3.9795,24.047 1.99811,3.8184 6.5517,5.0221 10.42392,4.6524 22.9596,1.0326 46.00224,2.5263 68.94818,0.3995 17.99078,-1.0339 36.31073,-0.2174 53.87969,-5.1032 5.16956,-1.4168 10.55989,-2.5945 15.19809,-5.4664 3.47929,-3.2527 3.41651,-8.5418 3.39279,-13.0386 0.14742,-7.8087 -0.20226,-16.2162 -4.49921,-22.9045 -4.27373,-6.3229 -11.99055,-8.7161 -19.08987,-8.3751 z"
       id="rect6282-6-3-0-1-6-6-8"
       inkscape:connector-curvature="0" />
    <path
       style="color:#000000;fill:#ff6600;fill-opacity:1;fill-rule:nonzero;stroke:none;stroke-width:6;marker:none;visibility:visible;display:inline;overflow:visible;enable-background:accumulate"
       d="m 585.38067,852.40205 c -24.98329,1.6891 -49.94733,3.7121 -74.94676,5.1245 -14.45529,0.8699 -29.03869,0.7962 -43.30205,3.7271 -2.85712,0.6405 -5.82211,1.054 -8.55137,2.1253 -4.56322,3.1385 -6.10964,9.3837 -5.43291,14.812 0.52746,8.1157 1.3276,16.3571 3.9795,24.047 1.99811,3.8184 6.5517,5.0221 10.42392,4.6524 22.9596,1.0326 46.00224,2.5263 68.94818,0.3995 17.99078,-1.0339 36.31073,-0.2174 53.87969,-5.1032 5.16956,-1.4168 10.55989,-2.5945 15.19809,-5.4664 3.47929,-3.2527 3.41651,-8.5418 3.39279,-13.0386 0.14742,-7.8087 -0.20226,-16.2162 -4.49921,-22.9045 -4.27373,-6.3229 -11.99055,-8.7161 -19.08987,-8.3751 z"
       id="rect6282-6-3-0-1-6-6-0"
       inkscape:connector-curvature="0" />
    <path
       style="color:#000000;fill:#e55c00;fill-opacity:1;fill-rule:nonzero;stroke:none;stroke-width:6;marker:none;visibility:visible;display:inline;overflow:visible;enable-background:accumulate"
       d="m 585.38067,908.40205 c -24.98329,1.6891 -49.94733,3.7121 -74.94676,5.1245 -14.45529,0.8699 -29.03869,0.7962 -43.30205,3.7271 -2.85712,0.6405 -5.82211,1.054 -8.55137,2.1253 -4.56322,3.1385 -6.10964,9.3837 -5.43291,14.812 0.52746,8.1157 1.3276,16.3571 3.9795,24.047 1.99811,3.8184 6.5517,5.0221 10.42392,4.6524 22.9596,1.0326 46.00224,2.5263 68.94818,0.3995 17.99078,-1.0339 36.31073,-0.2174 53.87969,-5.1032 5.16956,-1.4168 10.55989,-2.5945 15.19809,-5.4664 3.47929,-3.2527 3.41651,-8.5418 3.39279,-13.0386 0.14742,-7.8087 -0.20226,-16.2162 -4.49921,-22.9045 -4.27373,-6.3229 -11.99055,-8.7161 -19.08987,-8.3751 z"
       id="rect6282-6-3-0-1-6-6-8-9"
       inkscape:connector-curvature="0" />
    <path
       style="color:#000000;fill:#00a6c4;fill-opacity:1;fill-rule:nonzero;stroke:none;stroke-width:2;marker:none;visibility:visible;display:inline;overflow:visible;enable-background:accumulate"
       d="m 159.96798,1160.3622 0,22.7187 c 0.15019,-4.5473 1.88613,-9.1374 5.59375,-11.6875 2.72926,-1.0712 5.67413,-1.4844 8.53125,-2.125 14.26337,-2.9309 28.85722,-2.8801 43.3125,-3.75 24.99944,-1.4124 49.9542,-3.4358 74.9375,-5.125 0.44371,-0.021 0.89621,-0.032 1.34375,-0.031 l -133.71875,0 z m 133.71875,0 c 6.7131,0 13.74339,2.4784 17.75,8.4062 3.75984,5.8522 4.50433,13.0369 4.53125,19.9688 l 0,-28.375 -22.28125,0 z m 22.28125,28.375 c 0.004,0.9903 -0.0128,1.9614 -0.0312,2.9375 0.0237,4.4968 0.10429,9.7784 -3.375,13.0312 -4.63819,2.8719 -10.04919,4.0519 -15.21875,5.4688 -17.56897,4.8858 -35.88423,4.0911 -53.875,5.125 -7.17061,0.6646 -14.34724,0.9804 -21.53125,1.0625 l 94.0312,0 0,-27.625 z m -156,-4.625 0,32.25 57.65625,0 c -14.37074,-0.01 -28.744,-0.8234 -43.09375,-1.4688 -3.87222,0.3697 -8.43938,-0.8378 -10.4375,-4.6562 -2.65189,-7.69 -3.4413,-15.9156 -3.96875,-24.0313 -0.0846,-0.6785 -0.14268,-1.3973 -0.15625,-2.0937 z"
       id="rect6828-5"
       inkscape:connector-curvature="0" />
    <path
       style="color:#000000;fill:#e6e6e6;fill-opacity:1;stroke:none;stroke-width:1;marker:none;visibility:visible;display:inline;overflow:visible;enable-background:accumulate"
       d="m 409.00156,971.37044 0,54.00006 200,0 0,-54.00006 -200,0 z m 94.89573,0.806 c 2.25533,0.012 4.5304,0.054 6.78494,0.093 20.92442,0.5622 41.84676,1.4292 62.65173,3.0999 7.29245,0.4395 14.9337,1.5479 20.66604,4.8668 5.7364,3.5757 8.7978,8.65711 10.89325,13.67051 1.39431,3.9717 2.93919,7.94765 3.48584,12.02755 0.82986,4.3462 -1.42735,8.9642 -6.22472,11.9036 -7.05837,4.17 -16.44061,5.8788 -25.52132,6.5408 -19.5969,1.039 -39.25003,0.1608 -58.85465,-0.31 -14.35476,-0.5313 -28.73871,-0.4083 -43.10613,-0.62 -16.66399,-0.093 -33.03298,-2.4794 -49.20635,-5.0218 -3.93833,-0.7788 -8.32119,-0.8522 -11.79583,-2.4799 -2.38584,-1.0441 -3.02113,-3.1947 -3.42359,-5.0218 -0.70501,-5.8392 -0.57426,-11.72055 -0.62247,-17.57645 -0.64339,-4.2571 1.7179,-8.74641 6.56707,-11.50061 10.33965,-5.3187 23.11137,-7.9987 35.85435,-8.8966 15.00628,-0.7159 30.07021,-0.4362 45.09803,-0.744 2.25514,-0.014 4.49848,-0.042 6.75381,-0.031 z"
       id="rect5789-5"
       inkscape:connector-curvature="0"
       inkscape:export-filename="/home/alex/Desktop/AlexDatoDesign/PROJECTS/101_NURSERY_OWLETS/Website/css/img/sprite.png"
       inkscape:export-xdpi="90"
       inkscape:export-ydpi="90" />
  </g>
</svg>
