<?xml version="1.0" encoding="UTF-8" standalone="no"?>
<!-- Created with Inkscape (http://www.inkscape.org/) -->
<svg id="svg6659" xmlns:rdf="http://www.w3.org/1999/02/22-rdf-syntax-ns#" xmlns="http://www.w3.org/2000/svg" height="83.502" width="130.66" version="1.1" xmlns:cc="http://creativecommons.org/ns#" xmlns:dc="http://purl.org/dc/elements/1.1/">
 <metadata id="metadata6664">
  <rdf:RDF>
   <cc:Work rdf:about="">
    <dc:format>image/svg+xml</dc:format>
    <dc:type rdf:resource="http://purl.org/dc/dcmitype/StillImage"/>
    <dc:title/>
   </cc:Work>
  </rdf:RDF>
 </metadata>
 <g id="layer1" transform="translate(-100.69184,-125.8888)">
  <g id="g6640-0-4-74" stroke-linejoin="miter" stroke-dashoffset="0" transform="matrix(0.3288533,0.04167109,-0.04167109,0.3288533,-31.839323,-68.946005)" stroke="#000" stroke-linecap="butt" stroke-miterlimit="4" stroke-width="4">
   <path id="path6605-5-3-3" style="enable-background:accumulate;color:#000000;" d="m592.38,585.39-0.78693,0.22074c0.12896,1.1896,0.20791,2.3306,0.37293,3.5499,7.7908,57.569,33.027,62.217,69.011,51.553,21.59-6.3983,47.053-18.311,74.931-27.641,71.47-23.919,126.03-72.003,125.56-109.53l-9.04,2.7691c-0.97809,1.9592-1.9824,3.9205-3.1791,5.8924-1.5414,2.5399-3.2508,5.0704-5.1383,7.6164-1.8876,2.546-3.9545,5.0844-6.1696,7.6197-2.2151,2.5352-4.5741,5.0811-7.0981,7.5886s-5.2082,4.9652-8.0226,7.428-5.7678,4.9204-8.8538,7.3216c-3.0861,2.4011-6.3008,4.7494-9.64,7.0719s-6.8057,4.6224-10.379,6.8494c-3.5737,2.227-7.2581,4.403-11.048,6.5175-3.7896,2.1145-7.6935,4.146-11.68,6.131-3.9868,1.985-8.0598,3.9193-12.225,5.7579-4.1655,1.8386-8.4145,3.614-12.74,5.2892-4.3255,1.6753-8.7112,3.2572-13.178,4.7522-6.9695,2.3325-13.791,4.8231-20.435,7.3519-6.6448,2.5288-13.123,5.0878-19.397,7.5599-6.2746,2.4721-12.368,4.8349-18.227,6.9972-5.8588,2.1624-11.474,4.1324-16.872,5.732-4.498,1.333-8.832,2.4096-12.981,3.1907-4.1491,0.78105-8.1258,1.2511-11.9,1.3333-1.887,0.0411-3.7154-0.005-5.5037-0.16635-1.7883-0.16116-3.5397-0.43299-5.226-0.81477s-3.3111-0.90393-4.8922-1.5247-3.1064-1.3496-4.579-2.2278c-1.4726-0.87813-2.8954-1.8656-4.2562-3.0194s-2.6576-2.4587-3.9034-3.9067c-1.2458-1.4479-2.4492-3.0675-3.5766-4.8279-1.1275-1.7604-2.1823-3.6786-3.1882-5.7698s-1.9504-4.3461-2.8314-6.7865c-0.88108-2.4404-1.7067-5.0431-2.4596-7.851-0.16935-0.63132-0.30449-1.3724-0.46721-2.0229z" fill="#feca00"/>
   <path id="path6605-2-4-1-6" style="enable-background:accumulate;color:#000000;" d="m595.19,606.16-0.78692,0.22074c0.12895,1.1896,0.20791,2.3306,0.37292,3.5499,7.7908,57.569,33.027,62.217,69.011,51.553,21.59-6.3983,47.053-18.311,74.931-27.641,71.471-23.919,126.03-72.003,125.56-109.53l-9.04,2.7691c-0.97809,1.9592-1.9824,3.9205-3.1791,5.8924-1.5414,2.5399-3.2508,5.0704-5.1383,7.6164-1.8876,2.546-3.9545,5.0844-6.1696,7.6197-2.2151,2.5352-4.5741,5.0811-7.0981,7.5886s-5.2082,4.9652-8.0226,7.428-5.7677,4.9204-8.8538,7.3216c-3.0861,2.4011-6.3008,4.7494-9.64,7.0719s-6.8057,4.6224-10.379,6.8494c-3.5737,2.227-7.2581,4.403-11.048,6.5175-3.7896,2.1145-7.6935,4.146-11.68,6.131-3.9868,1.985-8.0597,3.9193-12.225,5.7579-4.1655,1.8386-8.4145,3.614-12.74,5.2892-4.3255,1.6753-8.7112,3.2572-13.178,4.7522-6.9695,2.3325-13.791,4.8231-20.435,7.352-6.6448,2.5288-13.123,5.0878-19.397,7.5599-6.2746,2.4721-12.368,4.8349-18.227,6.9972-5.8588,2.1624-11.474,4.1324-16.872,5.732-4.498,1.333-8.832,2.4096-12.981,3.1907-4.149,0.78106-8.1258,1.2511-11.9,1.3333-1.887,0.0411-3.7154-0.005-5.5037-0.16636-1.7883-0.16115-3.5397-0.43299-5.226-0.81477s-3.3111-0.90393-4.8922-1.5247c-1.5811-0.62078-3.1064-1.3496-4.579-2.2278-1.4726-0.87814-2.8954-1.8656-4.2562-3.0195-1.3608-1.1538-2.6576-2.4587-3.9034-3.9067-1.2458-1.4479-2.4492-3.0675-3.5767-4.8279s-2.1823-3.6786-3.1882-5.7698-1.9504-4.3461-2.8314-6.7865c-0.88108-2.4404-1.7067-5.0431-2.4596-7.851-0.16934-0.63132-0.30448-1.3724-0.46721-2.0228z" fill="#feca00"/>
   <path id="path6605-3-7-9-7" style="enable-background:accumulate;color:#000000;" d="m598.01,626.94-0.78692,0.22074c0.12895,1.1896,0.20791,2.3306,0.37292,3.5499,7.7908,57.569,33.027,62.217,69.011,51.553,21.59-6.3983,47.053-18.311,74.931-27.641,71.471-23.919,126.03-72.003,125.56-109.53l-9.04,2.7691c-0.97809,1.9592-1.9824,3.9205-3.1791,5.8924-1.5414,2.5399-3.2508,5.0704-5.1383,7.6164-1.8876,2.546-3.9545,5.0844-6.1696,7.6197-2.2151,2.5352-4.5741,5.0811-7.0981,7.5886s-5.2082,4.9652-8.0226,7.428-5.7677,4.9204-8.8538,7.3216c-3.0861,2.4011-6.3008,4.7494-9.64,7.0719s-6.8057,4.6224-10.379,6.8494c-3.5737,2.227-7.2581,4.403-11.048,6.5175-3.7896,2.1145-7.6935,4.146-11.68,6.131-3.9868,1.985-8.0597,3.9193-12.225,5.7579-4.1655,1.8386-8.4145,3.614-12.74,5.2892-4.3255,1.6753-8.7112,3.2572-13.178,4.7522-6.9695,2.3325-13.791,4.8231-20.435,7.3519-6.6448,2.5288-13.123,5.0878-19.397,7.5599-6.2746,2.4721-12.368,4.8349-18.227,6.9972-5.8588,2.1624-11.474,4.1324-16.872,5.732-4.498,1.333-8.832,2.4096-12.981,3.1907-4.149,0.78105-8.1258,1.2511-11.9,1.3333-1.887,0.0411-3.7154-0.005-5.5037-0.16635-1.7883-0.16116-3.5397-0.43299-5.226-0.81477s-3.3111-0.90393-4.8922-1.5247-3.1064-1.3496-4.579-2.2278c-1.4726-0.87813-2.8954-1.8656-4.2562-3.0194s-2.6576-2.4587-3.9034-3.9067c-1.2458-1.4479-2.4492-3.0675-3.5767-4.8279s-2.1823-3.6786-3.1882-5.7698-1.9504-4.3461-2.8314-6.7865c-0.88108-2.4404-1.7067-5.0431-2.4596-7.851-0.16934-0.63132-0.30448-1.3724-0.46721-2.0229z" fill="#feca00"/>
   <path id="path6551-8-2-4" style="enable-background:accumulate;color:#000000;" d="m709.47,726.37-84.601-38.2-43.533,77.627-3.7042-93.297-91.285-20.275,94.303-27.272-0.65464-105.25,49.757,91.532,102.95-39.126-75.616,78.196z" fill-rule="nonzero" fill="#feca00"/>
   <path id="path6551-9-0-4-45" style="enable-background:accumulate;color:#000000;" d="m663.03,684.81-41.223-18.613-21.212,37.825-1.8049-45.46-44.48-9.8794,45.95-13.288-0.31899-51.283,24.245,44.6,50.161-19.064-36.845,38.102z" fill-rule="nonzero" fill="#F60"/>
  </g>
 </g>
</svg>
